<svg width="186" height="37" viewBox="0 0 186 37" fill="none" xmlns="http://www.w3.org/2000/svg">
<path d="M44.0293 19.1877C44.0293 27.0234 37.6772 33.3754 29.8416 33.3754C22.0059 33.3754 15.6539 27.0234 15.6539 19.1877C15.6539 11.3521 22.0059 5 29.8416 5C37.6772 5 44.0293 11.3521 44.0293 19.1877ZM22.0426 19.1877C22.0426 23.495 25.5343 26.9867 29.8416 26.9867C34.1488 26.9867 37.6405 23.495 37.6405 19.1877C37.6405 14.8805 34.1488 11.3887 29.8416 11.3887C25.5343 11.3887 22.0426 14.8805 22.0426 19.1877Z" fill="url(#paint0_linear)"/>
<path d="M7.70875 8.40505H13.3838V30.5379H7.70875V8.40505Z" fill="url(#paint1_linear)"/>
<path d="M0 12.9451H5.43862V25.9978H0V12.9451Z" fill="url(#paint2_linear)"/>
<path d="M52.7959 6.70215V31.332H57.6515V6.70215H52.7959Z" fill="white"/>
<path d="M71.0775 13.2467C68.6849 13.2467 66.9256 14.0911 65.8349 15.7096V13.7393H61.296V31.332H65.8349V21.8319C65.8349 20.3893 66.1867 19.2986 66.8905 18.5597C67.5942 17.856 68.509 17.4689 69.7053 17.4689C70.7609 17.4689 71.6053 17.7856 72.2387 18.4189C72.872 19.0523 73.1887 19.9319 73.1887 21.093V31.332H77.7276V20.5301C77.7276 18.2782 77.0943 16.4837 75.8276 15.1819C74.5609 13.9152 72.9775 13.2467 71.0775 13.2467Z" fill="white"/>
<path d="M90.6811 13.2467C88.2885 13.2467 86.5292 14.0911 85.4384 15.7096V13.7393H80.8995V31.332H85.4384V21.8319C85.4384 20.3893 85.7903 19.2986 86.494 18.5597C87.1977 17.856 88.1125 17.4689 89.3089 17.4689C90.3644 17.4689 91.2089 17.7856 91.8422 18.4189C92.4755 19.0523 92.7922 19.9319 92.7922 21.093V31.332H97.3312V20.5301C97.3312 18.2782 96.6978 16.4837 95.4311 15.1819C94.1645 13.9152 92.5811 13.2467 90.6811 13.2467Z" fill="white"/>
<path d="M108.877 31.8246C111.481 31.8246 113.662 30.945 115.492 29.1505C117.287 27.356 118.201 25.1394 118.201 22.5356C118.201 19.9319 117.287 17.7504 115.492 15.9559C113.662 14.1615 111.481 13.2467 108.877 13.2467C106.273 13.2467 104.057 14.1615 102.262 15.9559C100.468 17.7504 99.5882 19.9319 99.5882 22.5356C99.5882 25.1394 100.468 27.356 102.262 29.1505C104.057 30.945 106.273 31.8246 108.877 31.8246ZM108.877 27.3912C107.505 27.3912 106.379 26.9338 105.464 26.019C104.549 25.1042 104.127 23.9431 104.127 22.5356C104.127 21.1282 104.549 19.9671 105.464 19.0523C106.379 18.1374 107.505 17.68 108.877 17.68C110.214 17.68 111.375 18.1374 112.29 19.0523C113.205 19.9671 113.662 21.1282 113.662 22.5356C113.662 23.9431 113.205 25.1042 112.29 26.019C111.375 26.9338 110.214 27.3912 108.877 27.3912Z" fill="white"/>
<path d="M130.376 18.1023V13.7393H126.4V8.81328L121.861 10.1855V13.7393H118.8V18.1023H121.861V25.4208C121.861 27.8486 122.494 29.5376 123.761 30.4524C125.028 31.4024 127.244 31.6839 130.376 31.332V27.2153C129.496 27.2857 128.757 27.2857 128.194 27.2505C127.596 27.2153 127.139 27.0394 126.857 26.7579C126.541 26.4764 126.4 26.0542 126.4 25.4208V18.1023H130.376Z" fill="white"/>
<path d="M136.158 24.4005H149.423C149.528 23.7671 149.599 23.1338 149.599 22.5356C149.599 19.9319 148.754 17.7152 147.065 15.9208C145.376 14.1615 143.265 13.2467 140.697 13.2467C137.952 13.2467 135.736 14.1615 134.012 15.9208C132.252 17.68 131.408 19.8967 131.408 22.5356C131.408 25.2097 132.287 27.4264 134.047 29.1857C135.806 30.945 138.128 31.8246 141.049 31.8246C144.426 31.8246 146.96 30.5931 148.719 28.0598L145.06 25.9486C144.145 27.1449 142.843 27.7079 141.119 27.7079C138.41 27.7079 136.756 26.6172 136.158 24.4005ZM136.087 20.8819C136.334 19.756 136.862 18.9115 137.671 18.2782C138.445 17.6448 139.465 17.3282 140.697 17.3282C141.717 17.3282 142.632 17.6448 143.441 18.2078C144.251 18.806 144.778 19.6856 145.06 20.8819H136.087Z" fill="white"/>
<path d="M160.3 31.8246C161.989 31.8246 163.573 31.4376 164.98 30.5931C166.387 29.7487 167.478 28.6579 168.252 27.2505L164.311 24.9986C163.96 25.7375 163.397 26.3005 162.693 26.7227C161.989 27.1449 161.18 27.3209 160.265 27.3209C158.893 27.3209 157.767 26.8986 156.887 25.9838C155.972 25.069 155.55 23.9431 155.55 22.5356C155.55 21.1282 155.972 20.0023 156.887 19.0875C157.767 18.1726 158.893 17.7152 160.265 17.7152C161.145 17.7152 161.954 17.9263 162.658 18.3486C163.361 18.7708 163.924 19.3689 164.276 20.0726L168.182 17.7856C167.443 16.4134 166.387 15.3226 164.98 14.4781C163.573 13.6689 161.989 13.2467 160.3 13.2467C157.626 13.2467 155.41 14.1615 153.65 15.9208C151.891 17.7152 151.011 19.9319 151.011 22.5356C151.011 25.1745 151.891 27.3912 153.65 29.1505C155.41 30.945 157.626 31.8246 160.3 31.8246Z" fill="white"/>
<path d="M178.048 31.8246C179.737 31.8246 181.321 31.4376 182.728 30.5931C184.135 29.7487 185.226 28.6579 186 27.2505L182.06 24.9986C181.708 25.7375 181.145 26.3005 180.441 26.7227C179.737 27.1449 178.928 27.3209 178.013 27.3209C176.641 27.3209 175.515 26.8986 174.635 25.9838C173.721 25.069 173.298 23.9431 173.298 22.5356C173.298 21.1282 173.721 20.0023 174.635 19.0875C175.515 18.1726 176.641 17.7152 178.013 17.7152C178.893 17.7152 179.702 17.9263 180.406 18.3486C181.11 18.7708 181.673 19.3689 182.024 20.0726L185.93 17.7856C185.191 16.4134 184.135 15.3226 182.728 14.4781C181.321 13.6689 179.737 13.2467 178.048 13.2467C175.374 13.2467 173.158 14.1615 171.398 15.9208C169.639 17.7152 168.759 19.9319 168.759 22.5356C168.759 25.1745 169.639 27.3912 171.398 29.1505C173.158 30.945 175.374 31.8246 178.048 31.8246Z" fill="white"/>
<defs>
<linearGradient id="paint0_linear" x1="0" y1="19.1877" x2="44.2657" y2="19.1877" gradientUnits="userSpaceOnUse">
<stop stop-color="#8F09FF"/>
<stop offset="1" stop-color="#E860FE"/>
</linearGradient>
<linearGradient id="paint1_linear" x1="0" y1="19.1877" x2="44.2657" y2="19.1877" gradientUnits="userSpaceOnUse">
<stop stop-color="#8F09FF"/>
<stop offset="1" stop-color="#E860FE"/>
</linearGradient>
<linearGradient id="paint2_linear" x1="0" y1="19.1877" x2="44.2657" y2="19.1877" gradientUnits="userSpaceOnUse">
<stop stop-color="#8F09FF"/>
<stop offset="1" stop-color="#E860FE"/>
</linearGradient>
</defs>
</svg>
