<svg width="193" height="77" viewBox="0 0 193 77" fill="none" xmlns="http://www.w3.org/2000/svg">
<path d="M0 18H41.8164V59.8164H0V18Z" fill="#F0DB4F"/>
<path d="M38.394 49.8431C38.0879 47.9351 36.8437 46.3332 33.159 44.8386C31.879 44.2504 30.452 43.829 30.0267 42.8591C29.8757 42.2947 29.8558 41.9767 29.9512 41.6348C30.2255 40.5258 31.5491 40.18 32.5985 40.498C33.2742 40.7246 33.9142 41.2453 34.2998 42.0761C36.1044 40.9075 36.1004 40.9154 37.3605 40.1125C36.8994 39.397 36.6529 39.067 36.3508 38.761C35.2657 37.5486 33.787 36.9246 31.4219 36.9723C31.0125 37.0239 30.5991 37.0796 30.1897 37.1313C29.0092 37.4294 27.8842 38.0495 27.2244 38.8802C25.2449 41.1261 25.8093 45.0573 28.2181 46.6751C30.5912 48.4559 34.0772 48.8613 34.5224 50.5268C34.9556 52.566 33.0239 53.2258 31.1039 52.9913C29.6888 52.6971 28.9018 51.9777 28.0512 50.6699C26.4851 51.5762 26.4851 51.5762 24.8752 52.5024C25.2568 53.3371 25.6583 53.7147 26.2983 54.4382C29.3272 57.5108 36.9073 57.3598 38.2668 52.7091C38.3224 52.55 38.6882 51.4847 38.394 49.8431V49.8431ZM22.7327 37.2187H18.8214C18.8214 40.5974 18.8055 43.9522 18.8055 47.3309C18.8055 49.4814 18.9168 51.4529 18.567 52.0571C17.9946 53.2456 16.512 53.0986 15.8362 52.868C15.1486 52.5301 14.7988 52.0491 14.3933 51.3695C14.282 51.1747 14.1985 51.0237 14.1707 51.0117C13.1094 51.6596 12.052 52.3115 10.9907 52.9595C11.5194 54.0446 12.2985 54.9867 13.2962 55.5988C14.7868 56.4931 16.7902 56.7674 18.885 56.2864C20.2484 55.8889 21.4249 55.0662 22.0411 53.8141C22.9314 52.1724 22.7407 50.1849 22.7327 47.9868C22.7526 44.4014 22.7327 40.816 22.7327 37.2187Z" fill="#323330"/>
<path d="M58.359 49.3227C60.3945 49.3227 62.0624 48.7573 63.3629 47.5982C64.6633 46.4674 65.3135 44.856 65.3135 42.764V29.1377H61.4405V42.764C61.4405 43.6121 61.1861 44.2906 60.6772 44.7712C60.1683 45.28 59.3768 45.5062 58.359 45.5062C56.8607 45.5062 55.8147 44.8842 55.1928 43.6404L51.8286 45.5627C53.0725 48.0788 55.2493 49.3227 58.359 49.3227Z" fill="black"/>
<path d="M79.2635 34.7918V36.4597C78.161 35.1027 76.6344 34.396 74.6555 34.396C72.7614 34.396 71.15 35.131 69.793 36.5728C68.436 38.0146 67.7858 39.7673 67.7858 41.8593C67.7858 43.9513 68.436 45.7323 69.793 47.1741C71.15 48.6159 72.7614 49.3227 74.6555 49.3227C76.6344 49.3227 78.161 48.6442 79.2635 47.2589V48.9269H82.9104V34.7918H79.2635ZM75.334 45.8454C74.2032 45.8454 73.2703 45.4779 72.5352 44.7429C71.8002 44.0079 71.4327 43.0467 71.4327 41.8593C71.4327 40.7002 71.8002 39.7391 72.5352 39.004C73.2703 38.269 74.2032 37.8732 75.334 37.8732C76.4648 37.8732 77.3977 38.269 78.1327 39.004C78.8678 39.7391 79.2635 40.7002 79.2635 41.8593C79.2635 43.0467 78.8678 44.0079 78.1327 44.7429C77.3977 45.4779 76.4648 45.8454 75.334 45.8454Z" fill="black"/>
<path d="M95.5183 34.7918L92.0693 44.6863L88.6486 34.7918H84.6342L90.0056 48.9269H94.1613L99.5326 34.7918H95.5183Z" fill="black"/>
<path d="M111.482 34.7918V36.4597C110.379 35.1027 108.853 34.396 106.874 34.396C104.98 34.396 103.368 35.131 102.011 36.5728C100.654 38.0146 100.004 39.7673 100.004 41.8593C100.004 43.9513 100.654 45.7323 102.011 47.1741C103.368 48.6159 104.98 49.3227 106.874 49.3227C108.853 49.3227 110.379 48.6442 111.482 47.2589V48.9269H115.129V34.7918H111.482ZM107.552 45.8454C106.421 45.8454 105.488 45.4779 104.753 44.7429C104.018 44.0079 103.651 43.0467 103.651 41.8593C103.651 40.7002 104.018 39.7391 104.753 39.004C105.488 38.269 106.421 37.8732 107.552 37.8732C108.683 37.8732 109.616 38.269 110.351 39.004C111.086 39.7391 111.482 40.7002 111.482 41.8593C111.482 43.0467 111.086 44.0079 110.351 44.7429C109.616 45.4779 108.683 45.8454 107.552 45.8454Z" fill="black"/>
<path d="M125.362 49.3227C127.482 49.3227 129.206 48.7855 130.535 47.7113C131.864 46.637 132.542 45.1952 132.542 43.3576C132.542 42.7922 132.458 42.2834 132.316 41.8028C132.175 41.3222 132.005 40.8981 131.807 40.5589C131.609 40.2197 131.327 39.9087 130.959 39.5694C130.563 39.2585 130.224 39.004 129.941 38.8061C129.659 38.6365 129.235 38.4386 128.698 38.2125C128.16 37.9863 127.736 37.845 127.425 37.7319C127.114 37.6188 126.662 37.4774 126.068 37.2795C124.598 36.8272 123.581 36.4314 123.072 36.0357C122.563 35.6399 122.309 35.131 122.309 34.5091C122.309 33.9437 122.535 33.4631 122.987 33.0956C123.439 32.728 124.09 32.5301 124.909 32.5301C126.634 32.5301 127.906 33.3783 128.698 35.0745L131.977 33.1804C131.298 31.7951 130.337 30.7209 129.122 29.9293C127.906 29.1377 126.493 28.7419 124.909 28.7419C123.1 28.7419 121.573 29.2791 120.301 30.3533C119.029 31.4276 118.407 32.8411 118.407 34.6221C118.407 35.5268 118.549 36.3184 118.888 36.9968C119.199 37.6753 119.651 38.2407 120.273 38.6931C120.895 39.1454 121.489 39.4846 122.111 39.7391C122.733 40.0218 123.468 40.2762 124.372 40.5306C125.955 40.9829 127.086 41.407 127.708 41.8028C128.33 42.1986 128.641 42.7357 128.641 43.4142C128.641 44.0361 128.387 44.5167 127.878 44.9125C127.369 45.3083 126.549 45.5062 125.475 45.5062C123.213 45.5062 121.687 44.5167 120.923 42.4813L117.587 44.4319C118.125 45.9585 119.057 47.1459 120.414 48.0222C121.743 48.8986 123.383 49.3227 125.362 49.3227Z" fill="black"/>
<path d="M142.032 49.3227C143.389 49.3227 144.661 49.0117 145.792 48.3332C146.923 47.6547 147.799 46.7783 148.421 45.6475L145.255 43.8382C144.972 44.4319 144.52 44.8842 143.954 45.2235C143.389 45.5627 142.739 45.7041 142.004 45.7041C140.901 45.7041 139.997 45.3648 139.29 44.6298C138.555 43.8948 138.216 42.9901 138.216 41.8593C138.216 40.7285 138.555 39.8239 139.29 39.0888C139.997 38.3538 140.901 37.9863 142.004 37.9863C142.711 37.9863 143.361 38.1559 143.926 38.4952C144.492 38.8344 144.944 39.315 145.227 39.8804L148.365 38.0428C147.771 36.9403 146.923 36.0639 145.792 35.3854C144.661 34.7352 143.389 34.396 142.032 34.396C139.884 34.396 138.103 35.131 136.689 36.5445C135.275 37.9863 134.569 39.7673 134.569 41.8593C134.569 43.9796 135.275 45.7606 136.689 47.1741C138.103 48.6159 139.884 49.3227 142.032 49.3227Z" fill="black"/>
<path d="M154.107 37.223V34.7918H150.46V48.9269H154.107V42.1703C154.107 40.8133 154.531 39.8521 155.408 39.2585C156.284 38.6931 157.273 38.4669 158.404 38.58V34.5091C157.443 34.5091 156.567 34.7352 155.775 35.1876C154.984 35.6399 154.446 36.3184 154.107 37.223Z" fill="black"/>
<path d="M162.346 33.0956C162.968 33.0956 163.477 32.8977 163.93 32.4453C164.382 31.993 164.608 31.4841 164.608 30.8622C164.608 30.2685 164.382 29.7314 163.93 29.2791C163.477 28.8267 162.968 28.6006 162.346 28.6006C161.725 28.6006 161.216 28.8267 160.763 29.2791C160.311 29.7314 160.113 30.2685 160.113 30.8622C160.113 31.4841 160.311 31.993 160.763 32.4453C161.216 32.8977 161.725 33.0956 162.346 33.0956ZM160.537 48.9269H164.184V34.7918H160.537V48.9269Z" fill="black"/>
<path d="M175.749 34.396C173.77 34.396 172.243 35.1027 171.169 36.4597V34.7918H167.522V54.5809H171.169V47.2589C172.243 48.6442 173.77 49.3227 175.749 49.3227C177.643 49.3227 179.254 48.6159 180.611 47.1741C181.968 45.7323 182.646 43.9513 182.646 41.8593C182.646 39.7673 181.968 38.0146 180.611 36.5728C179.254 35.131 177.643 34.396 175.749 34.396ZM175.07 45.8454C173.939 45.8454 173.006 45.4779 172.271 44.7429C171.536 44.0079 171.169 43.0467 171.169 41.8593C171.169 40.7002 171.536 39.7391 172.271 39.004C173.006 38.269 173.939 37.8732 175.07 37.8732C176.201 37.8732 177.134 38.269 177.869 39.004C178.604 39.7391 179 40.7002 179 41.8593C179 43.0467 178.604 44.0079 177.869 44.7429C177.134 45.4779 176.201 45.8454 175.07 45.8454Z" fill="black"/>
<path d="M193 38.2973V34.7918H189.805V30.8339L186.159 31.9365V34.7918H183.699V38.2973H186.159V44.1775C186.159 46.1281 186.667 47.4851 187.685 48.2201C188.703 48.9834 190.484 49.2096 193 48.9269V45.6193C192.293 45.6758 191.7 45.6758 191.247 45.6475C190.767 45.6193 190.399 45.4779 190.173 45.2518C189.919 45.0256 189.805 44.6864 189.805 44.1775V38.2973H193Z" fill="black"/>
</svg>
