<svg width="109" height="57" viewBox="0 0 109 57" fill="none" xmlns="http://www.w3.org/2000/svg">
<path d="M43.7397 25.272V34.29H44.8737H46.0077V30.024V25.758L48.7941 25.7364L51.5697 25.704L51.6021 24.6024L51.6345 23.49L48.8481 23.4684L46.0617 23.436V21.006V18.576L49.6581 18.5436L53.2437 18.522V17.388V16.254H48.4917H43.7397V25.272Z" fill="black"/>
<path d="M56.8619 17.0534C56.0195 17.4314 55.7171 18.3494 56.1599 19.1594C56.7431 20.1962 58.2227 20.1854 58.7627 19.1486C59.0219 18.6302 59.0219 18.1226 58.7519 17.6798C58.3307 16.9994 57.5639 16.7402 56.8619 17.0534Z" fill="black"/>
<path d="M65.8904 22.0428C63.1148 22.788 61.484 25.7796 62.1536 28.9224C62.9528 32.7024 67.154 34.4628 70.0808 32.2272L70.664 31.7844L70.61 33.0264C70.5452 34.4304 70.3076 35.1216 69.6272 35.8776C68.6012 37.0116 66.776 37.3464 65.426 36.6552C65.1992 36.5364 64.9616 36.4716 64.9076 36.504C64.8644 36.5364 64.5836 36.9576 64.3136 37.4436C63.8168 38.286 63.806 38.3292 64.0004 38.4804C64.778 39.0744 66.4628 39.42 67.7588 39.258C70.1456 38.9664 72.2948 36.99 72.7808 34.6356C72.8564 34.2576 72.8996 32.0112 72.8996 28.134V22.194H71.7656H70.6316V22.68C70.6316 22.95 70.5992 23.166 70.5668 23.166C70.5344 23.166 70.3184 23.0256 70.1024 22.8528C68.9684 21.9564 67.3592 21.6432 65.8904 22.0428ZM68.7416 24.3972C69.4652 24.732 70.2536 25.6176 70.4696 26.3304C70.6748 27.0324 70.6748 28.0476 70.4696 28.7496C70.1024 29.9916 69.0008 30.834 67.6508 30.9204C66.8624 30.9744 66.3332 30.8232 65.6636 30.3804C64.4432 29.5704 63.968 27.9072 64.4864 26.2008C64.67 25.5744 65.4692 24.7104 66.1496 24.3972C66.9056 24.0408 67.9856 24.0408 68.7416 24.3972Z" fill="black"/>
<path d="M80.4164 22.032C79.9628 22.2048 79.3688 22.626 78.98 23.0472L78.7316 23.3064V22.7448V22.194H77.5976H76.4636V28.242V34.29H77.5976H78.7316V30.456C78.7316 28.1448 78.7748 26.4168 78.8504 26.0928C79.1096 24.8832 80.2112 24.0516 81.3776 24.1704C82.3928 24.2784 83.0624 24.7536 83.4728 25.65C83.6888 26.1144 83.6996 26.3412 83.6996 30.2076V34.29H84.8984H86.0864L86.0648 29.9916C86.054 25.1856 86.0648 25.11 86.81 24.4512C87.3392 23.9868 87.7928 23.814 88.5056 23.814C89.5316 23.814 90.3632 24.3324 90.752 25.2072C90.9464 25.6608 90.9572 25.92 90.9464 29.9916L90.9248 34.29H92.1128H93.3116V30.2076C93.3116 25.6824 93.2468 25.1532 92.6528 24.03C92.2316 23.2416 91.5512 22.5936 90.7412 22.2156C90.2012 21.9564 89.9852 21.924 89.0456 21.924C88.0088 21.924 87.9224 21.9456 87.134 22.3344C86.5616 22.6152 86.1512 22.9068 85.8056 23.2956L85.3088 23.8464L85.136 23.5872C84.7904 23.0904 84.1424 22.5396 83.5268 22.2372C82.9868 21.978 82.7492 21.924 81.8636 21.9024C81.1508 21.8808 80.708 21.924 80.4164 22.032Z" fill="black"/>
<path d="M100.116 22.032C97.9234 22.6476 96.2926 24.516 95.839 26.946C95.4286 29.1168 96.0982 31.428 97.5562 32.9184C98.7658 34.1496 100.202 34.6896 102.006 34.5924C103.183 34.5276 104.09 34.1928 104.997 33.48L105.624 32.994V33.642V34.29H106.812H108V28.242V22.194H106.812H105.624V22.842V23.4792L104.933 22.9608C103.928 22.194 103.215 21.9564 101.844 21.9132C101.055 21.8808 100.537 21.924 100.116 22.032ZM103.442 24.5052C104.252 24.9156 104.922 25.5636 105.267 26.2872C105.548 26.8488 105.57 26.9892 105.57 28.242C105.57 29.4948 105.548 29.6352 105.267 30.1968C104.933 30.888 104.155 31.6656 103.453 32.0328C103.086 32.2164 102.74 32.292 101.984 32.3244C101.055 32.3676 100.947 32.346 100.289 32.0436C98.6578 31.2768 97.8262 29.7216 97.999 27.7884C98.1502 26.082 99.1546 24.786 100.688 24.2892C101.433 24.0408 102.751 24.1488 103.442 24.5052Z" fill="black"/>
<path d="M56.2681 28.242V34.3008L57.4345 34.2684L58.5901 34.236V28.242V22.248L57.4345 22.2156L56.2681 22.1832V28.242Z" fill="black"/>
<g clip-path="url(#clip0)">
<path d="M8.60742 53.623C13.3568 53.623 17.2114 49.7684 17.2114 45.019V36.415H8.60742C3.85801 36.415 0.00341797 40.2696 0.00341797 45.019C0.00341797 49.7684 3.85801 53.623 8.60742 53.623Z" fill="#0ACF83"/>
<path d="M0.00341797 27.812C0.00341797 23.0626 3.85801 19.208 8.60742 19.208H17.2114V36.416H8.60742C3.85801 36.416 0.00341797 32.5614 0.00341797 27.812Z" fill="#A259FF"/>
<path d="M0.00341797 10.604C0.00341797 5.85459 3.85801 2 8.60742 2H17.2114V19.208H8.60742C3.85801 19.208 0.00341797 15.3534 0.00341797 10.604Z" fill="#F24E1E"/>
<path d="M17.2114 2H25.8154C30.5648 2 34.4194 5.85459 34.4194 10.604C34.4194 15.3534 30.5648 19.208 25.8154 19.208H17.2114V2Z" fill="#FF7262"/>
<path d="M34.4194 27.812C34.4194 32.5614 30.5648 36.416 25.8154 36.416C21.066 36.416 17.2114 32.5614 17.2114 27.812C17.2114 23.0626 21.066 19.208 25.8154 19.208C30.5648 19.208 34.4194 23.0626 34.4194 27.812Z" fill="#1ABCFE"/>
</g>
<defs>
<clipPath id="clip0">
<rect width="34.4229" height="51.624" fill="white" transform="translate(0 2)"/>
</clipPath>
</defs>
</svg>
