<svg width="193" height="77" viewBox="0 0 193 77" fill="none" xmlns="http://www.w3.org/2000/svg">
<path d="M30.8222 63.5214L27 20.6504H69L65.1736 63.5146L47.9742 68.283L30.8222 63.5214Z" fill="#E44D26"/>
<path d="M48 64.6387L61.8978 60.7855L65.1679 24.1562H48V64.6387Z" fill="#F16529"/>
<path d="M47.9997 40.0553H41.0423L40.5616 34.6711H47.9997V29.4131H34.8152L34.9412 30.8237L36.2334 45.3131H47.9997V40.0553ZM47.9997 53.7107L47.9766 53.717L42.1209 52.1357L41.7465 47.9423H36.4685L37.2052 56.1981L47.9757 59.188L47.9997 59.1813V53.7107Z" fill="#EBEBEB"/>
<path d="M30.908 9H33.5799V11.6399H36.0241V9H38.6962V16.9943H36.0241V14.3174H33.5799V16.9943H30.9082L30.908 9ZM42.2102 11.6512H39.858V9H47.2359V11.6512H44.8826V16.9943H42.2103V11.6512H42.2102ZM48.4067 9H51.193L52.9069 11.809L54.6192 9H57.4064V16.9943H54.745V13.0318L52.9066 15.8743H52.8607L51.0211 13.0318V16.9943H48.4066V9H48.4067ZM58.736 9H61.4087V14.3519H65.1666V16.9943H58.736V9Z" fill="black"/>
<path d="M47.9817 40.0553V45.3131H54.4564L53.8459 52.1324L47.9817 53.715V59.1853L58.7608 56.1981L58.8396 55.3095L60.0754 41.4673L60.2037 40.0553H58.787H47.9817ZM47.9817 29.4131V34.6711H60.6822L60.7875 33.4892L61.0271 30.8237L61.1529 29.4131H47.9817Z" fill="white"/>
<path d="M94.6681 26.7969V36.8049H85.3081V26.7969H80.3401V51.9969H85.3081V41.5569H94.6681V51.9969H99.6001V26.7969H94.6681Z" fill="black"/>
<path d="M120.949 26.7969H102.409V31.5489H109.177V51.9969H114.145V31.5489H120.949V26.7969Z" fill="black"/>
<path d="M148.383 26.7969H143.271L136.071 38.7129L128.835 26.7969H123.723V51.9969H128.691V35.6889L135.783 47.3529H136.359L143.451 35.6529V51.9969H148.383V26.7969Z" fill="black"/>
<path d="M158.046 47.2449V26.7969H153.078V51.9969H167.658V47.2449H158.046Z" fill="black"/>
</svg>
