<svg width="193" height="77" viewBox="0 0 193 77" fill="none" xmlns="http://www.w3.org/2000/svg">
<g clip-path="url(#clip0)">
<path fill-rule="evenodd" clip-rule="evenodd" d="M9.73157 19.6758C7.05819 19.6758 5.08001 22.0157 5.16859 24.5533C5.25361 26.9912 5.14315 30.1487 4.3483 32.7236C3.5506 35.3057 2.20247 36.942 0 37.1521V39.5233C2.20247 39.7337 3.5506 41.3692 4.3482 43.9517C5.14315 46.5266 5.25352 49.6841 5.1685 52.122C5.07992 54.6593 7.0581 56.9995 9.73194 56.9995H37.1253C39.7987 56.9995 41.7765 54.6596 41.6879 52.122C41.6029 49.6841 41.7133 46.5266 42.5082 43.9517C43.3059 41.3692 44.6507 39.7331 46.8533 39.5233V37.1521C44.6508 36.9416 43.306 35.3061 42.5082 32.7236C41.7132 30.149 41.6029 26.9912 41.6879 24.5533C41.7765 22.0161 39.7987 19.6758 37.1253 19.6758H9.73121H9.73157ZM31.765 42.651C31.765 46.1451 29.1587 48.2642 24.8334 48.2642H17.4707C17.2601 48.2642 17.0581 48.1806 16.9092 48.0317C16.7602 47.8827 16.6766 47.6807 16.6766 47.4701V29.2053C16.6766 28.9947 16.7602 28.7927 16.9092 28.6438C17.0581 28.4948 17.2601 28.4112 17.4707 28.4112H24.7915C28.398 28.4112 30.7649 30.3647 30.7649 33.3641C30.7649 35.4693 29.1727 37.3539 27.1442 37.6841V37.7939C29.9056 38.0968 31.765 40.0094 31.765 42.651V42.651ZM24.0306 30.9285H19.8325V36.8584H23.3683C26.1018 36.8584 27.6089 35.7577 27.6089 33.7903C27.6087 31.9466 26.3129 30.9285 24.0306 30.9285ZM19.8325 39.2112V45.7461H24.1851C27.031 45.7461 28.5385 44.6041 28.5385 42.458C28.5385 40.3119 26.9888 39.2109 24.0021 39.2109H19.8325V39.2112Z" fill="#7952B3"/>
<path d="M70.2493 37.9446C71.5808 36.8854 72.2466 35.463 72.2466 33.7078C72.2466 31.9828 71.6111 30.5605 70.3703 29.4408C69.1296 28.3211 67.6164 27.7461 65.8007 27.7461H57.4482V48.9299H66.4362C68.2822 48.9299 69.8559 48.3549 71.1269 47.2049C72.3979 46.0549 73.0334 44.6023 73.0334 42.7866C73.0334 40.6379 72.0953 39.034 70.2493 37.9446ZM65.8007 31.65C66.4665 31.65 67.0112 31.8921 67.4349 32.3157C67.8585 32.7697 68.0704 33.3144 68.0704 33.9802C68.0704 34.6459 67.8283 35.2209 67.4046 35.6446C66.9809 36.0985 66.4362 36.3104 65.8007 36.3104H61.6245V31.65H65.8007ZM66.4362 45.026H61.6245V40.0327H66.4362C67.1322 40.0327 67.7072 40.2748 68.1914 40.759C68.6454 41.2432 68.8875 41.8182 68.8875 42.5142C68.8875 43.2405 68.6454 43.8458 68.1914 44.33C67.7072 44.8142 67.1322 45.026 66.4362 45.026Z" fill="black"/>
<path d="M83.0286 49.3535C85.268 49.3535 87.1443 48.597 88.7179 47.0536C90.2613 45.5102 91.0481 43.6037 91.0481 41.3642C91.0481 39.1248 90.2613 37.2485 88.7179 35.7051C87.1443 34.1617 85.268 33.3749 83.0286 33.3749C80.7891 33.3749 78.8826 34.1617 77.3392 35.7051C75.7958 37.2485 75.0393 39.1248 75.0393 41.3642C75.0393 43.6037 75.7958 45.5102 77.3392 47.0536C78.8826 48.597 80.7891 49.3535 83.0286 49.3535ZM83.0286 45.5405C81.8483 45.5405 80.8799 45.147 80.0931 44.3602C79.3063 43.5734 78.9431 42.5747 78.9431 41.3642C78.9431 40.1537 79.3063 39.1551 80.0931 38.3682C80.8799 37.5814 81.8483 37.188 83.0286 37.188C84.1786 37.188 85.1772 37.5814 85.964 38.3682C86.7509 39.1551 87.1443 40.1537 87.1443 41.3642C87.1443 42.5747 86.7509 43.5734 85.964 44.3602C85.1772 45.147 84.1786 45.5405 83.0286 45.5405Z" fill="black"/>
<path d="M100.997 49.3535C103.236 49.3535 105.113 48.597 106.686 47.0536C108.23 45.5102 109.017 43.6037 109.017 41.3642C109.017 39.1248 108.23 37.2485 106.686 35.7051C105.113 34.1617 103.236 33.3749 100.997 33.3749C98.7575 33.3749 96.851 34.1617 95.3076 35.7051C93.7642 37.2485 93.0076 39.1248 93.0076 41.3642C93.0076 43.6037 93.7642 45.5102 95.3076 47.0536C96.851 48.597 98.7575 49.3535 100.997 49.3535ZM100.997 45.5405C99.8167 45.5405 98.8483 45.147 98.0615 44.3602C97.2747 43.5734 96.9115 42.5747 96.9115 41.3642C96.9115 40.1537 97.2747 39.1551 98.0615 38.3682C98.8483 37.5814 99.8167 37.188 100.997 37.188C102.147 37.188 103.146 37.5814 103.932 38.3682C104.719 39.1551 105.113 40.1537 105.113 41.3642C105.113 42.5747 104.719 43.5734 103.932 44.3602C103.146 45.147 102.147 45.5405 100.997 45.5405Z" fill="black"/>
<path d="M120.093 37.5511V33.7986H116.673V29.5618L112.769 30.7421V33.7986H110.136V37.5511H112.769V43.8458C112.769 45.9339 113.314 47.3865 114.403 48.1733C115.493 48.9904 117.399 49.2325 120.093 48.9299V45.3891C119.336 45.4497 118.701 45.4497 118.217 45.4194C117.702 45.3891 117.309 45.2378 117.067 44.9957C116.794 44.7536 116.673 44.3905 116.673 43.8458V37.5511H120.093Z" fill="black"/>
<path d="M126.121 38.0959C126.121 37.7327 126.273 37.4301 126.606 37.188C126.939 36.9762 127.362 36.8551 127.877 36.8551C128.996 36.8551 129.813 37.3696 130.298 38.3985L133.627 36.5827C133.021 35.5538 132.234 34.767 131.236 34.2223C130.207 33.6775 129.087 33.3749 127.877 33.3749C126.243 33.3749 124.85 33.8289 123.761 34.6762C122.672 35.5236 122.127 36.7038 122.127 38.1867C122.127 39.1853 122.369 40.0024 122.914 40.6682C123.458 41.334 124.094 41.7879 124.881 42.0905C125.637 42.3932 126.394 42.6655 127.181 42.8471C127.937 43.0589 128.573 43.301 129.117 43.5431C129.662 43.7852 129.935 44.1181 129.935 44.5115C129.935 45.3891 129.238 45.8128 127.846 45.8128C126.303 45.8128 125.304 45.1773 124.881 43.8458L121.491 45.7523C122.611 48.1733 124.729 49.3535 127.846 49.3535C129.571 49.3535 131.024 48.9601 132.174 48.1128C133.324 47.2654 133.929 46.0852 133.929 44.5115C133.929 43.4826 133.657 42.6353 133.112 41.9392C132.567 41.2734 131.932 40.7892 131.175 40.4866C130.388 40.184 129.632 39.9419 128.875 39.7603C128.089 39.5787 127.453 39.3366 126.908 39.0945C126.364 38.8524 126.121 38.5196 126.121 38.0959Z" fill="black"/>
<path d="M144.652 37.5511V33.7986H141.232V29.5618L137.328 30.7421V33.7986H134.695V37.5511H137.328V43.8458C137.328 45.9339 137.873 47.3865 138.962 48.1733C140.052 48.9904 141.958 49.2325 144.652 48.9299V45.3891C143.895 45.4497 143.259 45.4497 142.775 45.4194C142.261 45.3891 141.867 45.2378 141.625 44.9957C141.353 44.7536 141.232 44.3905 141.232 43.8458V37.5511H144.652Z" fill="black"/>
<path d="M151.544 36.4012V33.7986H147.64V48.9299H151.544V41.6971C151.544 40.2445 151.998 39.2156 152.936 38.5801C153.875 37.9748 154.934 37.7327 156.144 37.8538V33.496C155.115 33.496 154.177 33.7381 153.33 34.2223C152.482 34.7065 151.907 35.4328 151.544 36.4012Z" fill="black"/>
<path d="M169.366 33.7986V35.5841C168.185 34.1315 166.551 33.3749 164.433 33.3749C162.405 33.3749 160.68 34.1617 159.228 35.7051C157.775 37.2485 157.079 39.1248 157.079 41.3642C157.079 43.6037 157.775 45.5102 159.228 47.0536C160.68 48.597 162.405 49.3535 164.433 49.3535C166.551 49.3535 168.185 48.6272 169.366 47.1444V48.9299H173.27V33.7986H169.366ZM165.159 45.6312C163.949 45.6312 162.95 45.2378 162.163 44.451C161.376 43.6642 160.983 42.6353 160.983 41.3642C160.983 40.1235 161.376 39.0945 162.163 38.3077C162.95 37.5209 163.949 37.0972 165.159 37.0972C166.37 37.0972 167.368 37.5209 168.155 38.3077C168.942 39.0945 169.366 40.1235 169.366 41.3642C169.366 42.6353 168.942 43.6642 168.155 44.451C167.368 45.2378 166.37 45.6312 165.159 45.6312Z" fill="black"/>
<path d="M185.616 33.3749C183.498 33.3749 181.863 34.1315 180.713 35.5841V33.7986H176.81V54.9824H180.713V47.1444C181.863 48.6272 183.498 49.3535 185.616 49.3535C187.643 49.3535 189.368 48.597 190.821 47.0536C192.274 45.5102 193 43.6037 193 41.3642C193 39.1248 192.274 37.2485 190.821 35.7051C189.368 34.1617 187.643 33.3749 185.616 33.3749ZM184.89 45.6312C183.679 45.6312 182.68 45.2378 181.894 44.451C181.107 43.6642 180.713 42.6353 180.713 41.3642C180.713 40.1235 181.107 39.0945 181.894 38.3077C182.68 37.5209 183.679 37.0972 184.89 37.0972C186.1 37.0972 187.099 37.5209 187.886 38.3077C188.672 39.0945 189.096 40.1235 189.096 41.3642C189.096 42.6353 188.672 43.6642 187.886 44.451C187.099 45.2378 186.1 45.6312 184.89 45.6312Z" fill="black"/>
</g>
<defs>
<clipPath id="clip0">
<rect width="193" height="77" fill="white"/>
</clipPath>
</defs>
</svg>
