<svg width="193" height="77" viewBox="0 0 193 77" fill="none" xmlns="http://www.w3.org/2000/svg">
<g clip-path="url(#clip0)">
<path d="M68.9122 11.1937H65.4284L69.0521 15.1281V16.9992H61.5865V14.8079H65.2102L61.5865 10.8735V9H68.9146L68.9122 11.1937ZM60.1043 11.1937H56.6157L60.2442 15.1281V16.9992H52.7762V14.8079H56.3999L52.7762 10.8735V9H60.1043V11.1937ZM51.3817 11.2838H47.6229V14.7178H51.3817V17.0016H44.9478V9H51.3817V11.2838Z" fill="#131313"/>
<path d="M39.8229 63.5237L36 20.6533H78L74.1723 63.5166L56.9739 68.2834L39.8229 63.5237Z" fill="#1572B6"/>
<path d="M57 64.6414L70.8972 60.7876L74.1652 24.1592H57V64.6414Z" fill="#33A9DC"/>
<path d="M57 39.6905H63.9581L64.4372 34.3071H57V29.0518H70.1858L70.0601 30.4628L68.7676 44.9529H57V39.6905Z" fill="white"/>
<path d="M57.0283 53.345H57.0046L51.1493 51.7632L50.7746 47.5703H45.5002L46.2378 55.8256L57.0093 58.8233H57.0402V53.345H57.0283Z" fill="#EBEBEB"/>
<path d="M63.5124 44.7221L62.8792 51.7585L57.0144 53.3403V58.8185L67.7931 55.8304L67.8713 54.9411L68.7867 44.7197H63.5124V44.7221Z" fill="white"/>
<path d="M57.019 29.0518V34.3095H44.3217L44.2126 33.1284L43.9731 30.4628L43.8474 29.0518H57.019ZM57 39.6905V44.9482H51.211L51.1091 43.7672L50.8695 41.1016L50.7439 39.6905H56.9976H57Z" fill="#EBEBEB"/>
</g>
<path d="M105.292 52.208C107.596 52.208 109.684 51.704 111.628 50.624C113.536 49.544 115.048 48.104 116.128 46.268L111.844 43.784C111.232 44.9 110.332 45.764 109.18 46.412C108.028 47.06 106.732 47.348 105.292 47.348C102.844 47.348 100.864 46.592 99.352 45.044C97.84 43.532 97.12 41.552 97.12 39.104C97.12 36.656 97.84 34.676 99.352 33.128C100.864 31.616 102.844 30.824 105.292 30.824C106.732 30.824 108.028 31.148 109.18 31.796C110.332 32.444 111.196 33.308 111.844 34.424L116.128 31.94C115.048 30.14 113.536 28.7 111.592 27.62C109.648 26.54 107.56 26 105.292 26C101.476 26 98.344 27.26 95.896 29.78C93.412 32.3 92.188 35.396 92.188 39.104C92.188 42.812 93.412 45.908 95.896 48.428C98.344 50.948 101.476 52.208 105.292 52.208Z" fill="black"/>
<path d="M127.784 52.208C130.484 52.208 132.68 51.524 134.372 50.156C136.064 48.788 136.928 46.952 136.928 44.612C136.928 43.892 136.82 43.244 136.64 42.632C136.46 42.02 136.244 41.48 135.992 41.048C135.74 40.616 135.38 40.22 134.912 39.788C134.408 39.392 133.976 39.068 133.616 38.816C133.256 38.6 132.716 38.348 132.032 38.06C131.348 37.772 130.808 37.592 130.412 37.448C130.016 37.304 129.44 37.124 128.684 36.872C126.812 36.296 125.516 35.792 124.868 35.288C124.22 34.784 123.896 34.136 123.896 33.344C123.896 32.624 124.184 32.012 124.76 31.544C125.336 31.076 126.164 30.824 127.208 30.824C129.404 30.824 131.024 31.904 132.032 34.064L136.208 31.652C135.344 29.888 134.12 28.52 132.572 27.512C131.024 26.504 129.224 26 127.208 26C124.904 26 122.96 26.684 121.34 28.052C119.72 29.42 118.928 31.22 118.928 33.488C118.928 34.64 119.108 35.648 119.54 36.512C119.936 37.376 120.512 38.096 121.304 38.672C122.096 39.248 122.852 39.68 123.644 40.004C124.436 40.364 125.372 40.688 126.524 41.012C128.54 41.588 129.98 42.128 130.772 42.632C131.564 43.136 131.96 43.82 131.96 44.684C131.96 45.476 131.636 46.088 130.988 46.592C130.34 47.096 129.296 47.348 127.928 47.348C125.048 47.348 123.104 46.088 122.132 43.496L117.884 45.98C118.568 47.924 119.756 49.436 121.484 50.552C123.176 51.668 125.264 52.208 127.784 52.208Z" fill="black"/>
<path d="M147.999 52.208C150.699 52.208 152.895 51.524 154.587 50.156C156.279 48.788 157.143 46.952 157.143 44.612C157.143 43.892 157.035 43.244 156.855 42.632C156.675 42.02 156.459 41.48 156.207 41.048C155.955 40.616 155.595 40.22 155.127 39.788C154.623 39.392 154.191 39.068 153.831 38.816C153.471 38.6 152.931 38.348 152.247 38.06C151.563 37.772 151.023 37.592 150.627 37.448C150.231 37.304 149.655 37.124 148.899 36.872C147.027 36.296 145.731 35.792 145.083 35.288C144.435 34.784 144.111 34.136 144.111 33.344C144.111 32.624 144.399 32.012 144.975 31.544C145.551 31.076 146.379 30.824 147.423 30.824C149.619 30.824 151.239 31.904 152.247 34.064L156.423 31.652C155.559 29.888 154.335 28.52 152.787 27.512C151.239 26.504 149.439 26 147.423 26C145.119 26 143.175 26.684 141.555 28.052C139.935 29.42 139.143 31.22 139.143 33.488C139.143 34.64 139.323 35.648 139.755 36.512C140.151 37.376 140.727 38.096 141.519 38.672C142.311 39.248 143.067 39.68 143.859 40.004C144.651 40.364 145.587 40.688 146.739 41.012C148.755 41.588 150.195 42.128 150.987 42.632C151.779 43.136 152.175 43.82 152.175 44.684C152.175 45.476 151.851 46.088 151.203 46.592C150.555 47.096 149.511 47.348 148.143 47.348C145.263 47.348 143.319 46.088 142.347 43.496L138.099 45.98C138.783 47.924 139.971 49.436 141.699 50.552C143.391 51.668 145.479 52.208 147.999 52.208Z" fill="black"/>
<defs>
<clipPath id="clip0">
<rect width="42" height="59.2838" fill="white" transform="translate(36 9)"/>
</clipPath>
</defs>
</svg>
