<svg width="109" height="57" viewBox="0 0 109 57" fill="none" xmlns="http://www.w3.org/2000/svg">
<path d="M23.1786 8.5H46.8571C48.8888 8.5 50.5357 10.147 50.5357 12.1786V42.8214C50.5357 44.853 48.8888 46.5 46.8571 46.5H23.1786C21.147 46.5 19.5 44.853 19.5 42.8214V12.1786C19.5 10.147 21.147 8.5 23.1786 8.5Z" fill="white" stroke="black"/>
<rect x="24.5715" y="16.3574" width="20.8929" height="2.78571" rx="1.39286" fill="#C4C4C4" stroke="black"/>
<rect x="24.5715" y="23.3213" width="20.8929" height="2.78571" rx="1.39286" fill="#C4C4C4" stroke="black"/>
<rect x="24.5715" y="30.2861" width="20.8929" height="2.78571" rx="1.39286" fill="#C4C4C4" stroke="black"/>
<rect x="24.5715" y="37.25" width="20.8929" height="2.78571" rx="1.39286" fill="#C4C4C4" stroke="black"/>
<path d="M69.5062 24.0005H62.9302V23.7605C62.9302 22.8965 63.1462 22.2725 63.6262 21.9125C64.0822 21.5765 64.8022 21.3845 65.7622 21.3845C66.6742 21.3845 67.5622 21.4565 68.4262 21.5765V19.2005C67.4902 19.0085 66.6022 18.8885 65.7622 18.8885C62.1382 18.8885 60.3382 20.5205 60.3382 23.7605V24.0005H58.5142V26.4965H60.3382V36.0005H62.9302V26.4965H66.9142V36.0005H69.5062V24.0005Z" fill="black"/>
<path d="M72.5054 36.0005H75.0974V18.4805H72.5054V36.0005Z" fill="black"/>
<path d="M80.147 31.1045H89.699C89.747 30.6725 89.795 30.3125 89.795 30.0245C89.795 28.2725 89.219 26.7845 88.091 25.5365C86.963 24.3125 85.523 23.6885 83.771 23.6885C81.899 23.6885 80.387 24.3125 79.211 25.5125C78.011 26.7125 77.435 28.2245 77.435 30.0005C77.435 31.8245 78.035 33.3365 79.235 34.5365C80.435 35.7365 81.995 36.3125 83.963 36.3125C86.267 36.3125 88.019 35.4485 89.219 33.6965L87.083 32.4485C86.387 33.4565 85.355 33.9365 83.987 33.9365C82.979 33.9365 82.139 33.6965 81.467 33.2165C80.771 32.7365 80.339 32.0165 80.147 31.1045ZM80.123 28.9925C80.291 28.0805 80.699 27.3605 81.347 26.8325C81.971 26.3045 82.787 26.0405 83.747 26.0405C84.587 26.0405 85.331 26.3045 85.955 26.7845C86.579 27.2885 86.987 28.0325 87.179 28.9925H80.123Z" fill="black"/>
</svg>
