<svg width="266" height="61" viewBox="0 0 266 61" fill="none" xmlns="http://www.w3.org/2000/svg">
<path d="M166.33 15.3984H185.197C186.816 15.3984 188.128 16.7107 188.128 18.3295V42.7461C188.128 44.3649 186.816 45.6772 185.197 45.6772H166.33C164.711 45.6772 163.398 44.3649 163.398 42.7461V18.3295C163.398 16.7107 164.711 15.3984 166.33 15.3984Z" fill="white" stroke="black" stroke-width="0.79681"/>
<rect x="167.439" y="21.6592" width="16.6476" height="2.21968" rx="1.10984" fill="#C4C4C4" stroke="black" stroke-width="0.79681"/>
<rect x="167.439" y="27.208" width="16.6476" height="2.21968" rx="1.10984" fill="#C4C4C4" stroke="black" stroke-width="0.79681"/>
<rect x="167.439" y="32.7578" width="16.6476" height="2.21968" rx="1.10984" fill="#C4C4C4" stroke="black" stroke-width="0.79681"/>
<rect x="167.439" y="38.3066" width="16.6476" height="2.21968" rx="1.10984" fill="#C4C4C4" stroke="black" stroke-width="0.79681"/>
<path d="M203.244 27.749H198.004V27.5577C198.004 26.8693 198.176 26.3721 198.559 26.0852C198.922 25.8175 199.496 25.6645 200.261 25.6645C200.987 25.6645 201.695 25.7219 202.383 25.8175V23.9243C201.637 23.7713 200.93 23.6757 200.261 23.6757C197.373 23.6757 195.939 24.9761 195.939 27.5577V27.749H194.485V29.7378H195.939V37.3107H198.004V29.7378H201.178V37.3107H203.244V27.749Z" fill="black"/>
<path d="M205.634 37.3107H207.699V23.3506H205.634V37.3107Z" fill="black"/>
<path d="M211.722 33.4095H219.334C219.372 33.0653 219.41 32.7784 219.41 32.549C219.41 31.1529 218.951 29.9673 218.052 28.9729C217.154 27.9976 216.006 27.5004 214.61 27.5004C213.118 27.5004 211.914 27.9976 210.977 28.9538C210.02 29.9099 209.562 31.1147 209.562 32.5298C209.562 33.9832 210.04 35.188 210.996 36.1442C211.952 37.1003 213.195 37.5593 214.763 37.5593C216.599 37.5593 217.995 36.8709 218.951 35.4748L217.249 34.4804C216.695 35.2836 215.872 35.6661 214.782 35.6661C213.979 35.6661 213.31 35.4748 212.774 35.0924C212.22 34.7099 211.875 34.1362 211.722 33.4095ZM211.703 31.7267C211.837 31 212.162 30.4263 212.679 30.0055C213.176 29.5848 213.826 29.3745 214.591 29.3745C215.26 29.3745 215.853 29.5848 216.35 29.9673C216.848 30.3689 217.173 30.9617 217.326 31.7267H211.703Z" fill="black"/>
<path d="M79.0438 28.5808V35.3936H79.9005H80.7572V32.1708V28.9479L82.8622 28.9316L84.9591 28.9072L84.9836 28.0749L85.008 27.2346L82.903 27.2182L80.798 27.1938V25.358V23.5222L83.515 23.4977L86.2237 23.4814V22.6247V21.768H82.6338H79.0438V28.5808Z" fill="black"/>
<path d="M88.9572 22.3715C88.3208 22.6571 88.0923 23.3506 88.4269 23.9625C88.8674 24.7458 89.9852 24.7376 90.3932 23.9544C90.589 23.5627 90.589 23.1793 90.385 22.8447C90.0668 22.3307 89.4875 22.1349 88.9572 22.3715Z" fill="black"/>
<path d="M95.7778 26.1412C93.681 26.7041 92.449 28.9642 92.9548 31.3385C93.5586 34.1941 96.7325 35.524 98.9435 33.8351L99.3841 33.5006L99.3433 34.4389C99.2944 35.4995 99.1149 36.0217 98.6009 36.5928C97.8258 37.4495 96.4469 37.7025 95.427 37.1803C95.2557 37.0905 95.0762 37.0416 95.0354 37.0661C95.0027 37.0905 94.7906 37.4087 94.5866 37.7759C94.2113 38.4123 94.2032 38.4449 94.35 38.5592C94.9375 39.0079 96.2103 39.269 97.1894 39.1466C98.9925 38.9263 100.616 37.4332 100.983 35.6546C101.04 35.369 101.073 33.6719 101.073 30.7429V26.2554H100.216H99.3596V26.6226C99.3596 26.8265 99.3352 26.9897 99.3107 26.9897C99.2862 26.9897 99.123 26.8836 98.9599 26.7531C98.1032 26.0759 96.8875 25.8393 95.7778 26.1412ZM97.9318 27.9198C98.4785 28.1728 99.0741 28.8418 99.2373 29.3803C99.3923 29.9106 99.3923 30.6776 99.2373 31.2079C98.9599 32.1462 98.1276 32.7826 97.1078 32.8479C96.5122 32.8887 96.1124 32.7744 95.6065 32.4399C94.6845 31.828 94.3255 30.5715 94.7172 29.2824C94.8559 28.8092 95.4596 28.1564 95.9737 27.9198C96.5448 27.6506 97.3607 27.6506 97.9318 27.9198Z" fill="black"/>
<path d="M106.752 26.1331C106.409 26.2636 105.96 26.5818 105.667 26.9L105.479 27.0959V26.6716V26.2555H104.622H103.766V30.8245V35.3936H104.622H105.479V32.4971C105.479 30.7511 105.512 29.4456 105.569 29.2009C105.765 28.2871 106.597 27.6588 107.478 27.7486C108.245 27.8302 108.751 28.1892 109.061 28.8664C109.224 29.2172 109.232 29.3885 109.232 32.3095V35.3936H110.138H111.035L111.019 32.1463C111.011 28.5155 111.019 28.4584 111.582 27.9607C111.982 27.6099 112.324 27.4793 112.863 27.4793C113.638 27.4793 114.266 27.871 114.56 28.5318C114.707 28.8745 114.715 29.0703 114.707 32.1463L114.691 35.3936H115.588H116.494V32.3095C116.494 28.8908 116.445 28.491 115.996 27.6425C115.678 27.0469 115.164 26.5574 114.552 26.2718C114.144 26.076 113.981 26.0515 113.271 26.0515C112.488 26.0515 112.422 26.0678 111.827 26.3615C111.394 26.5737 111.084 26.794 110.823 27.0877L110.448 27.5038L110.317 27.308C110.056 26.9327 109.567 26.5166 109.102 26.2881C108.694 26.0923 108.514 26.0515 107.845 26.0352C107.307 26.0189 106.972 26.0515 106.752 26.1331Z" fill="black"/>
<path d="M121.634 26.1336C119.978 26.5986 118.746 28.0101 118.403 29.8459C118.093 31.4859 118.599 33.2319 119.7 34.3578C120.614 35.288 121.699 35.6959 123.062 35.6225C123.951 35.5735 124.636 35.3206 125.322 34.7821L125.795 34.4149V34.9045V35.394H126.692H127.59V30.825V26.2559H126.692H125.795V26.7455V27.2269L125.273 26.8352C124.514 26.2559 123.976 26.0765 122.939 26.0438C122.344 26.0193 121.952 26.052 121.634 26.1336ZM124.147 28.002C124.759 28.312 125.265 28.8016 125.526 29.3482C125.738 29.7725 125.754 29.8785 125.754 30.825C125.754 31.7714 125.738 31.8775 125.526 32.3018C125.273 32.8239 124.685 33.4114 124.155 33.6888C123.878 33.8275 123.617 33.8846 123.045 33.9091C122.344 33.9417 122.262 33.9254 121.764 33.697C120.532 33.1177 119.904 31.9428 120.035 30.4823C120.149 29.1932 120.908 28.2141 122.066 27.8388C122.629 27.6511 123.625 27.7327 124.147 28.002Z" fill="black"/>
<path d="M88.5084 30.8242V35.4014L89.3896 35.3769L90.2626 35.3524V30.8242V26.2959L89.3896 26.2715L88.5084 26.247V30.8242Z" fill="black"/>
<g clip-path="url(#clip0)">
<path d="M52.5026 50C56.0906 50 59.0026 47.088 59.0026 43.5V37H52.5026C48.9146 37 46.0026 39.912 46.0026 43.5C46.0026 47.088 48.9146 50 52.5026 50Z" fill="#0ACF83"/>
<path d="M46.0026 30.499C46.0026 26.911 48.9146 23.999 52.5026 23.999H59.0026V36.999H52.5026C48.9146 36.999 46.0026 34.087 46.0026 30.499Z" fill="#A259FF"/>
<path d="M46.0034 17.5C46.0034 13.912 48.9154 11 52.5034 11H59.0034V24H52.5034C48.9154 24 46.0034 21.088 46.0034 17.5Z" fill="#F24E1E"/>
<path d="M59.0026 11H65.5026C69.0906 11 72.0026 13.912 72.0026 17.5C72.0026 21.088 69.0906 24 65.5026 24H59.0026V11Z" fill="#FF7262"/>
<path d="M72.0026 30.499C72.0026 34.087 69.0906 36.999 65.5026 36.999C61.9146 36.999 59.0026 34.087 59.0026 30.499C59.0026 26.911 61.9146 23.999 65.5026 23.999C69.0906 23.999 72.0026 26.911 72.0026 30.499Z" fill="#1ABCFE"/>
</g>
<defs>
<clipPath id="clip0">
<rect width="26.0052" height="39" fill="white" transform="translate(46 11)"/>
</clipPath>
</defs>
</svg>
