<svg width="3875" height="2401" viewBox="0 0 3875 2401" fill="none" xmlns="http://www.w3.org/2000/svg">
<path d="M3444.32 1224.79C3181.21 1072.87 2756.15 1072.87 2494.58 1224.79C2233.02 1376.71 2234.53 1623 2497.5 1774.92C2760.46 1926.85 3185.88 1926.85 3447.3 1774.92C3708.72 1623 3707.46 1376.8 3444.32 1224.79Z" fill="#F5F5F5"/>
<path d="M2381.76 1545.11C2401.21 1533.86 2432.68 1533.86 2452.01 1545.11C2471.34 1556.37 2471.23 1574.56 2451.78 1585.79C2432.33 1597.02 2400.86 1597.05 2381.53 1585.79C2362.2 1574.53 2362.28 1556.34 2381.76 1545.11Z" fill="#E0E0E0"/>
<path d="M3522.47 1464.86C3542.89 1453.2 3575.87 1453.2 3596.16 1464.86C3616.46 1476.53 3616.31 1495.74 3595.93 1507.53C3575.55 1519.31 3542.51 1519.19 3522.24 1507.53C3501.97 1495.86 3502.06 1476.64 3522.47 1464.86Z" fill="#E0E0E0"/>
<path d="M3200.52 1262.03L2452.97 1698.55L2421.31 1680.27L3168.85 1243.74L3200.52 1262.03Z" fill="#E0E0E0"/>
<path d="M3399.27 1493.44C3326.37 1451.36 3208.65 1451.36 3136.28 1493.44C3072.3 1530.59 3065.22 1588.15 3114.67 1630.08C3074.75 1627.61 3033.4 1635.22 3002.93 1652.92C2949.42 1684 2949.71 1734.42 3003.54 1765.5C3057.37 1796.59 3144.42 1796.59 3197.89 1765.5C3240.47 1740.78 3248.95 1703.8 3223.53 1674.09C3284.76 1682.84 3352.36 1673.53 3400.12 1645.77C3472.55 1603.78 3472.14 1535.58 3399.27 1493.44Z" fill="#E0E0E0"/>
<path d="M2574.69 773.976L2574.92 852.154L2584.4 857.666L2584.13 768.523L2574.69 773.976Z" fill="#F0F0F0"/>
<path d="M2472.63 911.231L2472.66 922.196L2584.4 857.665L2574.92 852.153L2472.63 911.231Z" fill="#F5F5F5"/>
<path d="M2595.56 748.78L2460.9 826.521L2461.22 941.965L2595.89 864.225L2595.56 748.78ZM2472.66 922.195V911.231L2472.36 833.053L2574.66 773.975L2584.1 768.522L2584.37 857.664L2472.66 922.195Z" fill="#E0E0E0"/>
<path d="M2595.56 748.782L2586.09 743.271L2451.43 821.011L2460.9 826.522L2595.56 748.782Z" fill="#F5F5F5"/>
<path d="M2451.43 821.011L2451.75 936.456L2461.22 941.967L2460.9 826.522L2451.43 821.011Z" fill="#F0F0F0"/>
<path d="M3378.22 996.439L3377.99 1074.65L3368.51 1080.13L3368.77 990.986L3378.22 996.439Z" fill="#F0F0F0"/>
<path d="M3480.31 1133.69L3480.28 1144.66L3368.51 1080.13L3377.99 1074.64L3480.31 1133.69Z" fill="#F5F5F5"/>
<path d="M3357.05 1086.69L3491.68 1164.43L3492 1048.98L3357.37 971.242L3357.05 1086.69ZM3368.54 1080.13L3368.77 990.984L3378.22 996.436L3480.51 1055.51L3480.31 1133.69V1144.66L3368.54 1080.13Z" fill="#E0E0E0"/>
<path d="M3357.37 971.243L3366.85 965.732L3501.48 1043.47L3492 1048.98L3357.37 971.243Z" fill="#F5F5F5"/>
<path d="M3501.48 1043.47L3501.16 1158.92L3491.68 1164.43L3492 1048.98L3501.48 1043.47Z" fill="#F0F0F0"/>
<path d="M2775.01 854.136V835.153L2774.14 835.649L2772.57 836.582C2758.54 845.067 2744.46 858.364 2731.36 872.769C2729.18 875.131 2727.05 877.551 2724.92 879.972C2713.87 892.627 2703.08 906.041 2691.94 918.58V949.256L2705.32 941.529C2722.77 908.218 2746.42 878.554 2775.01 854.136V854.136Z" fill="#EBEBEB"/>
<path d="M2775.16 901.229V875.86C2763.53 888.22 2753.92 902.343 2746.7 917.704L2775.16 901.229Z" fill="#EBEBEB"/>
<path d="M2746.61 917.704C2753.83 902.342 2763.44 888.22 2775.07 875.859V854.135C2746.48 878.582 2722.83 908.276 2705.41 941.615L2746.67 917.792L2746.61 917.704Z" fill="#FAFAFA"/>
<path d="M2718.62 827.98L2720.57 827.309C2724.15 826.026 2727.77 824.539 2731.42 822.847L2732.76 822.206L2736.44 820.398C2738.57 819.319 2740.67 818.182 2742.79 816.986C2740.67 818.182 2738.57 819.319 2736.44 820.398L2737.22 820.019C2739.06 819.057 2740.93 818.036 2742.79 817.103L2743.99 816.432L2744.98 815.849C2755.1 809.883 2764.68 803.054 2773.62 795.437L2774.84 794.358V762.282C2754.43 772.692 2734.45 775.929 2718.3 771.03C2707.11 767.388 2697.58 759.884 2691.41 749.86L2691.65 833.228C2700.84 832.76 2709.92 830.993 2718.62 827.98V827.98Z" fill="#00D8FF"/>
<path d="M2731.3 872.77C2744.4 858.365 2758.48 845.068 2772.51 836.582L2774.08 835.649L2774.96 835.154V816.783C2747.73 832.766 2722.51 851.932 2699.81 873.878C2697.1 876.473 2694.39 879.098 2691.68 881.635V918.58C2702.81 906.041 2713.6 892.628 2724.66 879.972C2726.99 877.552 2729.12 875.249 2731.3 872.77Z" fill="#FF7262"/>
<path d="M2774.9 816.928V794.3L2773.67 795.379C2764.74 802.996 2755.16 809.826 2745.04 815.791L2744.05 816.374L2742.85 817.045C2740.99 818.095 2739.12 819.115 2737.28 819.961L2736.5 820.34L2736 820.603L2736.5 820.34L2732.82 822.148L2731.48 822.79C2727.85 824.481 2724.23 825.968 2720.63 827.251L2722.67 826.493L2720.63 827.251L2718.68 827.922C2709.99 830.965 2700.9 832.761 2691.71 833.258L2691.85 881.576C2694.56 879.039 2697.28 876.415 2699.99 873.82C2722.62 851.96 2747.77 832.863 2774.9 816.928V816.928Z" fill="#EBEBEB"/>
<path d="M2774.69 736.125V712.388C2761.83 709.472 2751.86 700.024 2746.61 685.999L2718.18 702.416C2723.16 713.032 2731.21 721.916 2741.28 727.923C2751.35 733.93 2762.99 736.787 2774.69 736.125V736.125Z" fill="#00ED92"/>
<path d="M2718.21 770.711C2734.37 775.727 2754.4 772.49 2774.75 761.963V736.011C2763.03 736.691 2751.37 733.843 2741.28 727.834C2731.2 721.826 2723.14 712.933 2718.15 702.302L2691.33 717.786V749.862C2697.55 759.766 2707.07 767.151 2718.21 770.711V770.711Z" fill="#EBEBEB"/>
<path d="M2779.16 661.768L2686.6 715.218L2687.3 957.246L2779.86 903.825L2779.16 661.768ZM2691.97 949.256V918.58V881.634L2691.82 833.316L2691.41 749.86V717.784L2718.18 702.329L2746.47 686L2774.43 669.845V712.389V736.126V762.078V794.154V816.782V835.153V854.136V875.86V901.229L2745.88 917.705L2704.62 941.529L2691.97 949.256Z" fill="white"/>
<path d="M2774.61 712.388V669.843L2746.47 685.998C2751.77 700.024 2761.75 709.384 2774.61 712.388Z" fill="#EBEBEB"/>
<path d="M2779.86 903.884L2687.3 957.334V963.778L2785.4 907.121L2779.86 903.884Z" fill="#CACACA"/>
<path d="M2779.16 661.768L2779.86 903.884L2785.4 907.12L2784.7 658.59L2779.16 661.768Z" fill="#F0F0F0"/>
<path d="M2799.6 632.812L2671.62 706.675L2672.43 989.527L2800.39 915.635L2799.6 632.812ZM2687.3 963.778V957.334L2686.6 715.306L2779.16 661.856L2784.7 658.677L2785.43 907.208L2687.3 963.778Z" fill="#E0E0E0"/>
<path d="M2799.6 632.812L2789.04 627.125L2661.09 701.017L2671.64 706.674L2799.6 632.812Z" fill="#F5F5F5"/>
<path d="M2661.09 701.017L2661.87 983.869L2672.43 989.526L2671.64 706.674L2661.09 701.017Z" fill="#F0F0F0"/>
<path d="M2542.2 803.661L2570.08 825.619L2570.14 847.08L2477.35 900.676L2477.29 879.215L2494.99 844.077L2510.85 856.412L2505.26 873.849L2513.39 858.365L2542.2 803.661Z" fill="#945858"/>
<path d="M2511.7 814.478C2516.08 811.971 2519.63 813.983 2519.66 818.998C2519.5 821.733 2518.71 824.392 2517.34 826.762C2515.96 829.133 2514.05 831.148 2511.76 832.645C2507.39 835.182 2503.86 833.141 2503.83 828.125C2503.98 825.393 2504.77 822.735 2506.14 820.365C2507.51 817.995 2509.41 815.979 2511.7 814.478V814.478Z" fill="#E9A82C"/>
<path d="M3410.73 1026.12L3382.83 1048.11L3382.77 1069.57L3475.56 1123.14L3475.61 1101.68L3457.94 1066.54L3442.05 1078.87L3447.68 1096.31L3439.51 1080.83L3410.73 1026.12Z" fill="#9A816E"/>
<path d="M3441.2 1036.94C3436.83 1034.43 3433.27 1036.44 3433.27 1041.46C3433.42 1044.2 3434.21 1046.86 3435.58 1049.24C3436.95 1051.61 3438.85 1053.63 3441.15 1055.14C3445.52 1057.64 3449.08 1055.63 3449.08 1050.59C3448.94 1047.85 3448.15 1045.19 3446.78 1042.82C3445.41 1040.44 3443.5 1038.43 3441.2 1036.94V1036.94Z" fill="#F7BF53"/>
<path d="M2369.63 1480.43L2416.76 1481.83L2463.88 1480.43C2465.92 1512.28 2459.71 1544.59 2451.14 1560.54C2449.1 1564.61 2445.84 1567.94 2441.8 1570.04C2427.87 1578 2405.3 1578 2391.59 1570.04C2387.5 1567.91 2384.22 1564.48 2382.26 1560.3C2373.77 1544.35 2367.62 1512.1 2369.63 1480.43Z" fill="white"/>
<path d="M2383.54 1461.16C2365.09 1471.8 2365 1489.09 2383.34 1499.74C2401.68 1510.38 2431.51 1510.41 2449.97 1499.74C2468.43 1489.07 2468.54 1471.8 2450.2 1461.16C2431.86 1450.52 2402.03 1450.49 2383.54 1461.16Z" fill="#EBEBEB"/>
<path d="M2390.86 1465.39C2376.46 1473.7 2376.28 1487.2 2390.69 1495.51C2405.09 1503.82 2428.27 1503.82 2442.68 1495.51C2457.08 1487.2 2457.26 1473.7 2442.85 1465.39C2428.45 1457.08 2405.3 1457.08 2390.86 1465.39Z" fill="#E0E0E0"/>
<g opacity="0.15">
<path opacity="0.15" d="M2390.86 1465.39C2376.46 1473.7 2376.28 1487.2 2390.69 1495.51C2405.09 1503.82 2428.27 1503.82 2442.68 1495.51C2457.08 1487.2 2457.26 1473.7 2442.85 1465.39C2428.45 1457.08 2405.3 1457.08 2390.86 1465.39Z" fill="black"/>
</g>
<path d="M2339.28 1279.38C2445.48 1314.13 2446.44 1385.17 2422.5 1435.76C2416.46 1446.03 2398.18 1451.51 2382.29 1388.58L2410.19 1392.17L2377.68 1375.69L2369.22 1350.56L2396.34 1352.57L2361.93 1337.99C2355.59 1318 2348.03 1298.43 2339.28 1279.38V1279.38Z" fill="url(#paint0_linear)"/>
<path opacity="0.2" d="M2339.28 1279.38C2445.48 1314.13 2446.44 1385.17 2422.5 1435.76C2416.46 1446.03 2398.18 1451.51 2382.29 1388.58L2410.19 1392.17L2377.68 1375.69L2369.22 1350.56L2396.34 1352.57L2361.93 1337.99C2355.59 1318 2348.03 1298.43 2339.28 1279.38V1279.38Z" fill="black"/>
<path opacity="0.2" d="M2339.28 1279.38C2445.48 1314.13 2446.44 1385.17 2422.5 1435.76C2416.46 1446.03 2398.18 1451.51 2382.29 1388.58L2410.19 1392.17L2377.68 1375.69L2369.22 1350.56L2396.34 1352.57L2361.93 1337.99C2355.59 1318 2348.03 1298.43 2339.28 1279.38V1279.38Z" fill="white"/>
<path d="M2369.31 1297.14C2425.33 1339.65 2430.37 1388.47 2414.57 1439.23C2420.17 1394.44 2426.2 1349.16 2369.31 1297.14Z" fill="white"/>
<path d="M2519.17 1351.55C2414.48 1366.27 2401.77 1432.26 2415.68 1483.38C2419.58 1493.91 2435.68 1502.07 2460.96 1446.11L2434.46 1444.8L2467.47 1434.86L2479.51 1412.75L2453.93 1410.13L2488.37 1402.37C2497.57 1384.81 2507.85 1367.83 2519.17 1351.55V1351.55Z" fill="url(#paint1_linear)"/>
<path opacity="0.2" d="M2519.17 1351.55C2414.48 1366.27 2401.77 1432.26 2415.68 1483.38C2419.58 1493.91 2435.68 1502.07 2460.96 1446.11L2434.46 1444.8L2467.47 1434.86L2479.51 1412.75L2453.93 1410.13L2488.37 1402.37C2497.57 1384.81 2507.85 1367.83 2519.17 1351.55V1351.55Z" fill="white"/>
<path opacity="0.1" d="M2519.17 1351.55C2414.48 1366.27 2401.77 1432.26 2415.68 1483.38C2419.58 1493.91 2435.68 1502.07 2460.96 1446.11L2434.46 1444.8L2467.47 1434.86L2479.51 1412.75L2453.93 1410.13L2488.37 1402.37C2497.57 1384.81 2507.85 1367.83 2519.17 1351.55V1351.55Z" fill="black"/>
<path d="M2488.23 1363.09C2429 1393.36 2416.2 1438.04 2422.5 1487.93C2424.72 1445.27 2426.61 1402.08 2488.23 1363.09Z" fill="white"/>
<path d="M2308.66 1376.28C2404.65 1377.85 2423.49 1435.91 2416.55 1483.5C2414.22 1493.44 2400.6 1502.6 2371.59 1455.01L2395.38 1450.84L2364.5 1445.59L2351.17 1427.01L2373.92 1421.8L2342.02 1418.65C2331.78 1403.85 2320.64 1389.7 2308.66 1376.28V1376.28Z" fill="url(#paint2_linear)"/>
<path d="M2337.82 1383.22C2394.57 1403.89 2411.13 1442.59 2411.13 1488.37C2404.25 1450.2 2397.71 1411.47 2337.82 1383.22Z" fill="white"/>
<path opacity="0.2" d="M2308.66 1376.28C2404.65 1377.85 2423.49 1435.91 2416.55 1483.5C2414.22 1493.44 2400.6 1502.6 2371.59 1455.01L2395.38 1450.84L2364.5 1445.59L2351.17 1427.01L2373.92 1421.8L2342.02 1418.65C2331.78 1403.85 2320.64 1389.7 2308.66 1376.28V1376.28Z" fill="white"/>
<path d="M3509.79 1397.04L3559.19 1398.5L3608.76 1397.04C3610.89 1430.43 3604.38 1464.43 3595.4 1481.05C3593.28 1485.31 3589.86 1488.79 3585.63 1490.99C3571.05 1499.42 3547.49 1499.42 3533.15 1490.99C3528.85 1488.76 3525.42 1485.17 3523.38 1480.79C3514.11 1464.08 3507.54 1430.25 3509.79 1397.04Z" fill="white"/>
<path d="M3524.37 1376.8C3505.01 1388 3504.89 1406.11 3524.14 1417.3C3543.38 1428.5 3574.67 1428.47 3594.12 1417.3C3613.57 1406.14 3613.57 1388 3594.35 1376.8C3575.14 1365.6 3543.73 1365.63 3524.37 1376.8Z" fill="#EBEBEB"/>
<path d="M3532.04 1381.26C3516.93 1390.01 3516.85 1404.12 3531.83 1412.84C3546.82 1421.56 3571.26 1421.59 3586.36 1412.84C3601.47 1404.1 3601.56 1389.98 3586.54 1381.26C3571.52 1372.54 3547.14 1372.54 3532.04 1381.26Z" fill="#E0E0E0"/>
<g opacity="0.15">
<path opacity="0.15" d="M3532.04 1381.26C3516.93 1390.01 3516.85 1404.12 3531.83 1412.84C3546.82 1421.56 3571.26 1421.59 3586.36 1412.84C3601.47 1404.1 3601.56 1389.98 3586.54 1381.26C3571.52 1372.54 3547.14 1372.54 3532.04 1381.26Z" fill="black"/>
</g>
<path d="M3584.41 1295.91C3592.43 1285.94 3601.76 1276.99 3609.14 1266.49C3614.18 1259.32 3618.38 1250.57 3616.25 1242.08C3615.08 1238.18 3612.83 1234.69 3609.78 1231.99C3606.72 1229.3 3602.98 1227.51 3598.96 1226.83C3590.81 1225.6 3582.49 1227.45 3575.63 1232.02C3568.89 1236.55 3562.97 1242.2 3558.14 1248.73C3530.32 1283.96 3517.16 1328.56 3521.39 1373.24C3521.5 1378.36 3523.1 1383.34 3526 1387.56C3527.77 1389.65 3530.1 1391.19 3532.72 1391.99C3535.33 1392.79 3538.12 1392.82 3540.76 1392.08C3554.23 1388.09 3552.42 1369.89 3554.64 1359.22C3559.38 1336.06 3569.56 1314.36 3584.35 1295.91H3584.41Z" fill="url(#paint3_linear)"/>
<path opacity="0.2" d="M3584.41 1295.91C3592.43 1285.94 3601.76 1276.99 3609.14 1266.49C3614.18 1259.32 3618.38 1250.57 3616.25 1242.08C3615.08 1238.18 3612.83 1234.69 3609.78 1231.99C3606.72 1229.3 3602.98 1227.51 3598.96 1226.83C3590.81 1225.6 3582.49 1227.45 3575.63 1232.02C3568.89 1236.55 3562.97 1242.2 3558.14 1248.73C3530.32 1283.96 3517.16 1328.56 3521.39 1373.24C3521.5 1378.36 3523.1 1383.34 3526 1387.56C3527.77 1389.65 3530.1 1391.19 3532.72 1391.99C3535.33 1392.79 3538.12 1392.82 3540.76 1392.08C3554.23 1388.09 3552.42 1369.89 3554.64 1359.22C3559.38 1336.06 3569.56 1314.36 3584.35 1295.91H3584.41Z" fill="white"/>
<path d="M3539.97 1378.52C3540.23 1378.47 3540.47 1378.33 3540.64 1378.13C3540.82 1377.93 3540.92 1377.68 3540.93 1377.41C3541.87 1355.81 3548.89 1282.06 3599.72 1240.36C3599.84 1240.27 3599.94 1240.15 3600.02 1240.01C3600.09 1239.87 3600.14 1239.72 3600.16 1239.57C3600.17 1239.41 3600.16 1239.26 3600.11 1239.11C3600.07 1238.96 3599.99 1238.82 3599.89 1238.7C3599.69 1238.46 3599.41 1238.31 3599.1 1238.27C3598.79 1238.24 3598.48 1238.33 3598.23 1238.52C3546.65 1281.01 3539.53 1355.6 3538.57 1377.47C3538.56 1377.78 3538.68 1378.09 3538.89 1378.32C3539.1 1378.55 3539.4 1378.68 3539.71 1378.7L3539.97 1378.52Z" fill="#F0F0F0"/>
<path d="M3532.56 1380.88C3533.63 1385.61 3535.65 1390.07 3538.48 1394C3541.32 1397.93 3544.92 1401.24 3549.07 1403.75C3556.84 1407.43 3565.48 1408.89 3574.03 1407.94C3582.69 1406.95 3591.21 1404.93 3599.4 1401.94C3603.45 1400.57 3608 1398.7 3608.44 1393.66C3608.51 1392.33 3608.28 1391 3607.78 1389.77C3607.28 1388.54 3606.5 1387.44 3605.52 1386.54C3604.69 1385.74 3603.81 1384.98 3602.9 1384.27C3602.47 1383.95 3602.16 1383.51 3601.99 1383.01C3601.82 1382.51 3601.81 1381.97 3601.96 1381.46C3602.11 1380.95 3602.41 1380.5 3602.82 1380.17C3603.24 1379.84 3603.74 1379.64 3604.27 1379.6C3606.69 1379.45 3609.11 1379.14 3611.5 1378.7C3617.07 1377.8 3622.31 1375.44 3626.66 1371.84C3629.84 1369.03 3632.25 1365.46 3633.69 1361.46C3634.91 1358.08 3635.26 1353.82 3632.67 1351.29C3631.07 1349.96 3629.13 1349.11 3627.07 1348.84C3625.26 1348.46 3623.46 1348.11 3621.62 1347.82C3621.1 1347.73 3620.63 1347.48 3620.27 1347.1C3619.91 1346.72 3619.68 1346.24 3619.62 1345.72C3619.56 1345.2 3619.67 1344.68 3619.93 1344.23C3620.19 1343.77 3620.59 1343.42 3621.06 1343.21L3628.73 1340.03C3630.94 1339.31 3632.94 1338.07 3634.57 1336.42C3635.57 1334.87 3636.22 1333.13 3636.48 1331.3C3636.73 1329.48 3636.59 1327.62 3636.05 1325.86C3635.12 1321.05 3633.46 1316.44 3632.32 1311.66C3630.98 1306.91 3630.81 1301.91 3631.82 1297.08C3617.45 1295.49 3602.9 1296.48 3588.87 1299.99C3584.67 1300.88 3580.7 1302.62 3577.21 1305.13C3572.43 1308.95 3571.2 1314.69 3571.7 1320.9C3571.7 1321.15 3571.63 1321.39 3571.48 1321.59C3571.34 1321.79 3571.13 1321.94 3570.89 1322C3570.65 1322.07 3570.4 1322.06 3570.17 1321.96C3569.94 1321.87 3569.75 1321.7 3569.63 1321.49L3564.67 1312.65C3563.95 1311.34 3562.76 1310.36 3561.34 1309.9C3559.92 1309.45 3558.37 1309.55 3557.03 1310.2C3552.74 1312.33 3548.93 1315.3 3545.83 1318.95C3544.12 1320.9 3542.81 1323.17 3541.99 1325.64C3541.16 1328.1 3540.85 1330.71 3541.05 1333.3C3541.63 1340.4 3542.82 1347.44 3544.61 1354.35C3544.69 1354.72 3544.66 1355.11 3544.52 1355.46C3544.38 1355.82 3544.14 1356.13 3543.83 1356.35C3543.52 1356.56 3543.15 1356.69 3542.77 1356.69C3542.39 1356.7 3542.01 1356.6 3541.69 1356.39L3541.46 1356.24C3540.14 1355.22 3538.48 1354.74 3536.82 1354.9C3532.51 1355.43 3531.4 1359.8 3530.99 1363.65C3530.83 1369.44 3531.36 1375.22 3532.56 1380.88V1380.88Z" fill="url(#paint4_linear)"/>
<path opacity="0.2" d="M3532.56 1380.88C3533.63 1385.61 3535.65 1390.07 3538.48 1394C3541.32 1397.93 3544.92 1401.24 3549.07 1403.75C3556.84 1407.43 3565.48 1408.89 3574.03 1407.94C3582.69 1406.95 3591.21 1404.93 3599.4 1401.94C3603.45 1400.57 3608 1398.7 3608.44 1393.66C3608.51 1392.33 3608.28 1391 3607.78 1389.77C3607.28 1388.54 3606.5 1387.44 3605.52 1386.54C3604.69 1385.74 3603.81 1384.98 3602.9 1384.27C3602.47 1383.95 3602.16 1383.51 3601.99 1383.01C3601.82 1382.51 3601.81 1381.97 3601.96 1381.46C3602.11 1380.95 3602.41 1380.5 3602.82 1380.17C3603.24 1379.84 3603.74 1379.64 3604.27 1379.6C3606.69 1379.45 3609.11 1379.14 3611.5 1378.7C3617.07 1377.8 3622.31 1375.44 3626.66 1371.84C3629.84 1369.03 3632.25 1365.46 3633.69 1361.46C3634.91 1358.08 3635.26 1353.82 3632.67 1351.29C3631.07 1349.96 3629.13 1349.11 3627.07 1348.84C3625.26 1348.46 3623.46 1348.11 3621.62 1347.82C3621.1 1347.73 3620.63 1347.48 3620.27 1347.1C3619.91 1346.72 3619.68 1346.24 3619.62 1345.72C3619.56 1345.2 3619.67 1344.68 3619.93 1344.23C3620.19 1343.77 3620.59 1343.42 3621.06 1343.21L3628.73 1340.03C3630.94 1339.31 3632.94 1338.07 3634.57 1336.42C3635.57 1334.87 3636.22 1333.13 3636.48 1331.3C3636.73 1329.48 3636.59 1327.62 3636.05 1325.86C3635.12 1321.05 3633.46 1316.44 3632.32 1311.66C3630.98 1306.91 3630.81 1301.91 3631.82 1297.08C3617.45 1295.49 3602.9 1296.48 3588.87 1299.99C3584.67 1300.88 3580.7 1302.62 3577.21 1305.13C3572.43 1308.95 3571.2 1314.69 3571.7 1320.9C3571.7 1321.15 3571.63 1321.39 3571.48 1321.59C3571.34 1321.79 3571.13 1321.94 3570.89 1322C3570.65 1322.07 3570.4 1322.06 3570.17 1321.96C3569.94 1321.87 3569.75 1321.7 3569.63 1321.49L3564.67 1312.65C3563.95 1311.34 3562.76 1310.36 3561.34 1309.9C3559.92 1309.45 3558.37 1309.55 3557.03 1310.2C3552.74 1312.33 3548.93 1315.3 3545.83 1318.95C3544.12 1320.9 3542.81 1323.17 3541.99 1325.64C3541.16 1328.1 3540.85 1330.71 3541.05 1333.3C3541.63 1340.4 3542.82 1347.44 3544.61 1354.35C3544.69 1354.72 3544.66 1355.11 3544.52 1355.46C3544.38 1355.82 3544.14 1356.13 3543.83 1356.35C3543.52 1356.56 3543.15 1356.69 3542.77 1356.69C3542.39 1356.7 3542.01 1356.6 3541.69 1356.39L3541.46 1356.24C3540.14 1355.22 3538.48 1354.74 3536.82 1354.9C3532.51 1355.43 3531.4 1359.8 3530.99 1363.65C3530.83 1369.44 3531.36 1375.22 3532.56 1380.88V1380.88Z" fill="black"/>
<path opacity="0.2" d="M3532.56 1380.88C3533.63 1385.61 3535.65 1390.07 3538.48 1394C3541.32 1397.93 3544.92 1401.24 3549.07 1403.75C3556.84 1407.43 3565.48 1408.89 3574.03 1407.94C3582.69 1406.95 3591.21 1404.93 3599.4 1401.94C3603.45 1400.57 3608 1398.7 3608.44 1393.66C3608.51 1392.33 3608.28 1391 3607.78 1389.77C3607.28 1388.54 3606.5 1387.44 3605.52 1386.54C3604.69 1385.74 3603.81 1384.98 3602.9 1384.27C3602.47 1383.95 3602.16 1383.51 3601.99 1383.01C3601.82 1382.51 3601.81 1381.97 3601.96 1381.46C3602.11 1380.95 3602.41 1380.5 3602.82 1380.17C3603.24 1379.84 3603.74 1379.64 3604.27 1379.6C3606.69 1379.45 3609.11 1379.14 3611.5 1378.7C3617.07 1377.8 3622.31 1375.44 3626.66 1371.84C3629.84 1369.03 3632.25 1365.46 3633.69 1361.46C3634.91 1358.08 3635.26 1353.82 3632.67 1351.29C3631.07 1349.96 3629.13 1349.11 3627.07 1348.84C3625.26 1348.46 3623.46 1348.11 3621.62 1347.82C3621.1 1347.73 3620.63 1347.48 3620.27 1347.1C3619.91 1346.72 3619.68 1346.24 3619.62 1345.72C3619.56 1345.2 3619.67 1344.68 3619.93 1344.23C3620.19 1343.77 3620.59 1343.42 3621.06 1343.21L3628.73 1340.03C3630.94 1339.31 3632.94 1338.07 3634.57 1336.42C3635.57 1334.87 3636.22 1333.13 3636.48 1331.3C3636.73 1329.48 3636.59 1327.62 3636.05 1325.86C3635.12 1321.05 3633.46 1316.44 3632.32 1311.66C3630.98 1306.91 3630.81 1301.91 3631.82 1297.08C3617.45 1295.49 3602.9 1296.48 3588.87 1299.99C3584.67 1300.88 3580.7 1302.62 3577.21 1305.13C3572.43 1308.95 3571.2 1314.69 3571.7 1320.9C3571.7 1321.15 3571.63 1321.39 3571.48 1321.59C3571.34 1321.79 3571.13 1321.94 3570.89 1322C3570.65 1322.07 3570.4 1322.06 3570.17 1321.96C3569.94 1321.87 3569.75 1321.7 3569.63 1321.49L3564.67 1312.65C3563.95 1311.34 3562.76 1310.36 3561.34 1309.9C3559.92 1309.45 3558.37 1309.55 3557.03 1310.2C3552.74 1312.33 3548.93 1315.3 3545.83 1318.95C3544.12 1320.9 3542.81 1323.17 3541.99 1325.64C3541.16 1328.1 3540.85 1330.71 3541.05 1333.3C3541.63 1340.4 3542.82 1347.44 3544.61 1354.35C3544.69 1354.72 3544.66 1355.11 3544.52 1355.46C3544.38 1355.82 3544.14 1356.13 3543.83 1356.35C3543.52 1356.56 3543.15 1356.69 3542.77 1356.69C3542.39 1356.7 3542.01 1356.6 3541.69 1356.39L3541.46 1356.24C3540.14 1355.22 3538.48 1354.74 3536.82 1354.9C3532.51 1355.43 3531.4 1359.8 3530.99 1363.65C3530.83 1369.44 3531.36 1375.22 3532.56 1380.88V1380.88Z" fill="white"/>
<path d="M3555.34 1402.58C3558.07 1391.05 3561.97 1379.83 3567 1369.1C3567.01 1368.94 3567.04 1368.77 3567.11 1368.62C3567.18 1368.47 3567.29 1368.34 3567.41 1368.23L3568.2 1366.48C3566.8 1353.11 3562.92 1340.11 3556.77 1328.16C3556.66 1328.03 3556.58 1327.87 3556.54 1327.71C3556.5 1327.54 3556.49 1327.36 3556.52 1327.2C3556.55 1327.03 3556.62 1326.87 3556.72 1326.73C3556.82 1326.59 3556.95 1326.47 3557.1 1326.38C3557.24 1326.29 3557.41 1326.24 3557.58 1326.22C3557.75 1326.21 3557.92 1326.23 3558.09 1326.28C3558.25 1326.34 3558.4 1326.43 3558.52 1326.54C3558.65 1326.66 3558.74 1326.81 3558.81 1326.97C3564.58 1338.11 3568.4 1350.16 3570.09 1362.6C3579.86 1343 3595.46 1320.05 3619.67 1303.32C3619.79 1303.22 3619.93 1303.16 3620.08 1303.12C3620.23 1303.09 3620.39 1303.08 3620.54 1303.11C3620.7 1303.14 3620.84 1303.19 3620.97 1303.28C3621.1 1303.37 3621.21 1303.48 3621.3 1303.61C3621.39 1303.73 3621.45 1303.88 3621.48 1304.03C3621.52 1304.18 3621.52 1304.33 3621.49 1304.49C3621.47 1304.64 3621.41 1304.78 3621.33 1304.91C3621.24 1305.04 3621.13 1305.15 3621.01 1305.24C3596.16 1322.53 3580.5 1346.47 3570.97 1366.48C3583.75 1360.7 3597.93 1358.77 3611.79 1360.94C3611.94 1360.96 3612.09 1361.02 3612.22 1361.11C3612.35 1361.19 3612.46 1361.3 3612.54 1361.43C3612.63 1361.55 3612.69 1361.7 3612.72 1361.85C3612.75 1362 3612.75 1362.16 3612.72 1362.31C3612.69 1362.54 3612.57 1362.76 3612.41 1362.92C3612.24 1363.09 3612.03 1363.2 3611.79 1363.24H3611.35C3611.12 1363.24 3588.64 1359.13 3569.22 1369.98C3564.24 1380.58 3560.36 1391.66 3557.64 1403.04C3557.6 1403.27 3557.48 1403.48 3557.32 1403.64C3557.15 1403.8 3556.94 1403.91 3556.71 1403.95H3556.24C3556.09 1403.92 3555.95 1403.86 3555.82 1403.78C3555.69 1403.69 3555.58 1403.58 3555.5 1403.46C3555.41 1403.33 3555.36 1403.18 3555.33 1403.03C3555.3 1402.88 3555.3 1402.73 3555.34 1402.58V1402.58Z" fill="#F0F0F0"/>
<path d="M2443.2 1631.6L2441.83 1149.79L2420.14 1137.4L2421.48 1618.3C2421.34 1619.86 2421.6 1621.42 2422.24 1622.85C2422.88 1624.27 2423.87 1625.51 2425.12 1626.44V1626.44L2446.53 1639.5C2445.36 1638.57 2444.45 1637.35 2443.87 1635.97C2443.29 1634.59 2443.06 1633.09 2443.2 1631.6V1631.6Z" fill="url(#paint5_linear)"/>
<path opacity="0.2" d="M2443.2 1631.6L2441.83 1149.79L2420.14 1137.4L2421.48 1618.3C2421.34 1619.86 2421.6 1621.42 2422.24 1622.85C2422.88 1624.27 2423.87 1625.51 2425.12 1626.44V1626.44L2446.53 1639.5C2445.36 1638.57 2444.45 1637.35 2443.87 1635.97C2443.29 1634.59 2443.06 1633.09 2443.2 1631.6V1631.6Z" fill="white"/>
<path d="M2456.15 1638.95C2455.35 1639.41 2454.51 1639.8 2453.64 1640.12C2454.51 1639.8 2455.35 1639.41 2456.15 1638.95V1638.95Z" fill="#455A64"/>
<path d="M2441.86 1108.09V1084.15C2442.08 1079.7 2443.34 1075.36 2445.55 1071.49C2447.76 1067.62 2450.85 1064.32 2454.58 1061.87L3180.66 642.698C3181.95 641.778 3183.45 641.205 3185.02 641.037C3186.6 640.868 3188.19 641.109 3189.64 641.736L3168.21 628.585C3166.74 627.846 3165.1 627.526 3163.47 627.66C3161.83 627.793 3160.26 628.376 3158.94 629.343L2432.85 1048.52C2429.12 1050.95 2426.01 1054.23 2423.78 1058.09C2421.56 1061.95 2420.28 1066.29 2420.05 1070.74V1094.71V1095.64L2441.75 1108L2441.86 1108.09Z" fill="url(#paint6_linear)"/>
<path opacity="0.3" d="M2441.86 1108.09V1084.15C2442.08 1079.7 2443.34 1075.36 2445.55 1071.49C2447.76 1067.62 2450.85 1064.32 2454.58 1061.87L3180.66 642.698C3181.95 641.778 3183.45 641.205 3185.02 641.037C3186.6 640.868 3188.19 641.109 3189.64 641.736L3168.21 628.585C3166.74 627.846 3165.1 627.526 3163.47 627.66C3161.83 627.793 3160.26 628.376 3158.94 629.343L2432.85 1048.52C2429.12 1050.95 2426.01 1054.23 2423.78 1058.09C2421.56 1061.95 2420.28 1066.29 2420.05 1070.74V1094.71V1095.64L2441.75 1108L2441.86 1108.09Z" fill="white"/>
<path d="M2441.89 1149.79L2441.77 1108.18L2420.08 1095.84L2420.2 1136.46V1137.4L2441.89 1149.79Z" fill="#00D8FF"/>
<path opacity="0.2" d="M2441.89 1149.79L2441.77 1108.18L2420.08 1095.84L2420.2 1136.46V1137.4L2441.89 1149.79Z" fill="black"/>
<path opacity="0.2" d="M2441.89 1149.79L2441.77 1108.18L2420.08 1095.84L2420.2 1136.46V1137.4L2441.89 1149.79Z" fill="white"/>
<path d="M3180.63 642.756C3187.72 638.674 3193.49 641.969 3193.52 650.134V674.103L2441.86 1108.09V1084.15C2442.08 1079.7 2443.34 1075.36 2445.55 1071.49C2447.76 1067.62 2450.85 1064.32 2454.58 1061.87L3180.63 642.756Z" fill="url(#paint7_linear)"/>
<path d="M3131.96 682.415C3135.75 680.198 3138.85 681.977 3138.85 686.322C3138.72 688.701 3138.04 691.018 3136.85 693.081C3135.66 695.145 3133.99 696.896 3131.99 698.19C3128.2 700.406 3125.11 698.628 3125.11 694.283C3125.22 691.902 3125.91 689.582 3127.1 687.518C3128.29 685.453 3129.96 683.704 3131.96 682.415V682.415Z" fill="white"/>
<path d="M3152.93 670.285C3156.72 668.098 3159.81 669.877 3159.81 674.222C3159.7 676.603 3159.02 678.922 3157.82 680.986C3156.63 683.051 3154.96 684.801 3152.96 686.09C3149.17 688.277 3146.08 686.527 3146.08 682.153C3146.2 679.775 3146.89 677.461 3148.08 675.399C3149.27 673.337 3150.93 671.585 3152.93 670.285V670.285Z" fill="white"/>
<path d="M3173.87 658.212C3177.69 655.996 3180.75 657.775 3180.78 662.119C3180.66 664.507 3179.98 666.833 3178.78 668.906C3177.59 670.979 3175.93 672.74 3173.93 674.046C3170.13 676.262 3167.04 674.483 3167.01 670.138C3167.13 667.75 3167.82 665.425 3169.01 663.352C3170.2 661.279 3171.86 659.517 3173.87 658.212Z" fill="white"/>
<path d="M2593.03 997.05C2595.95 995.417 2598.48 995.708 2599.82 997.808L2606.65 1008.31C2608.02 1010.41 2610.61 1010.7 2613.44 1009.06L3193.49 674.044V715.714L2441.89 1149.85V1108.18L2464.17 1095.32C2467.31 1093.27 2469.7 1090.25 2470.97 1086.72L2477.67 1068.4C2478.92 1064.88 2481.29 1061.86 2484.44 1059.83L2593.03 997.05Z" fill="#E0E0E0"/>
<path d="M3193.61 715.774L3194.98 1197.61C3194.74 1202.06 3193.46 1206.38 3191.24 1210.23C3189.01 1214.08 3185.91 1217.35 3182.18 1219.78L2456.15 1638.95C2449.04 1643.06 2443.29 1639.77 2443.26 1631.6L2441.89 1149.79L3193.61 715.774Z" fill="url(#paint8_linear)"/>
<g opacity="0.4">
<path opacity="0.4" d="M3193.61 715.774L3194.98 1197.61C3194.74 1202.06 3193.46 1206.38 3191.24 1210.23C3189.01 1214.08 3185.91 1217.35 3182.18 1219.78L2456.15 1638.95C2449.04 1643.06 2443.29 1639.77 2443.26 1631.6L2441.89 1149.79L3193.61 715.774Z" fill="white"/>
</g>
<path d="M3163.89 699.764C3168.94 696.848 3173.02 699.181 3173.05 704.984C3172.87 708.134 3171.96 711.197 3170.37 713.928C3168.79 716.658 3166.59 718.978 3163.95 720.701L2527.77 1088.12C2522.72 1091.03 2518.61 1088.67 2518.58 1082.87C2518.76 1079.71 2519.68 1076.64 2521.26 1073.9C2522.85 1071.17 2525.06 1068.84 2527.71 1067.12L3163.89 699.764Z" fill="white"/>
<path d="M2453.91 1111.88C2454.05 1111.79 2454.22 1111.74 2454.39 1111.74C2454.56 1111.74 2454.72 1111.79 2454.87 1111.88C2455.34 1112.2 2455.31 1113.17 2454.87 1114.01L2450.87 1120.57L2461.31 1114.36C2461.44 1114.26 2461.59 1114.19 2461.75 1114.18C2461.91 1114.17 2462.07 1114.2 2462.21 1114.28C2462.35 1114.36 2462.46 1114.48 2462.53 1114.62C2462.6 1114.77 2462.62 1114.93 2462.6 1115.09C2462.58 1115.54 2462.46 1115.98 2462.24 1116.37C2462.01 1116.77 2461.7 1117.1 2461.31 1117.34L2450.79 1123.4L2454.81 1125.33C2455.34 1125.59 2455.39 1126.49 2454.81 1127.34C2454.59 1127.76 2454.27 1128.12 2453.88 1128.39C2453.74 1128.46 2453.58 1128.49 2453.43 1128.49C2453.27 1128.49 2453.11 1128.46 2452.97 1128.39L2446.53 1125.3L2446.27 1125.03V1124.51V1123.87L2446.5 1123.34L2452.94 1112.79C2453.17 1112.4 2453.51 1112.09 2453.91 1111.88V1111.88Z" fill="#E0E0E0"/>
<path d="M2476.71 1098.73C2476.84 1098.66 2476.99 1098.63 2477.15 1098.63C2477.3 1098.63 2477.45 1098.66 2477.58 1098.73L2484.03 1101.68L2484.26 1101.97V1102.49V1103.14V1103.28L2484.06 1103.81L2477.64 1114.36C2477.43 1114.72 2477.13 1115.02 2476.77 1115.24C2476.63 1115.33 2476.47 1115.38 2476.3 1115.38C2476.13 1115.38 2475.97 1115.33 2475.83 1115.24C2475.34 1114.95 2475.37 1113.98 2475.83 1113.11L2479.83 1106.58L2469.45 1112.76C2468.75 1113.14 2468.17 1112.76 2468.17 1112C2468.19 1111.56 2468.32 1111.13 2468.54 1110.75C2468.75 1110.36 2469.06 1110.03 2469.42 1109.78L2479.97 1103.72L2475.95 1101.79C2475.4 1101.53 2475.4 1100.63 2475.95 1099.72C2476.12 1099.34 2476.38 1099 2476.71 1098.73Z" fill="#E0E0E0"/>
<path d="M2498.35 1086.22C2499.64 1085.38 2501.21 1085.09 2502.72 1085.4L2503.68 1084.12C2503.87 1083.86 2504.11 1083.65 2504.38 1083.48C2504.61 1083.41 2504.85 1083.41 2505.08 1083.48C2505.52 1083.48 2505.72 1084 2505.67 1084.65L2505.11 1088.61C2505.04 1089.09 2504.85 1089.54 2504.56 1089.92C2504.37 1090.18 2504.13 1090.4 2503.86 1090.57L2503.54 1090.71L2500.42 1091.59C2500.31 1091.62 2500.19 1091.63 2500.08 1091.62C2499.97 1091.6 2499.86 1091.56 2499.77 1091.49C2499.67 1091.43 2499.6 1091.34 2499.54 1091.24C2499.49 1091.14 2499.46 1091.03 2499.45 1090.92C2499.41 1090.27 2499.62 1089.63 2500.04 1089.14L2500.33 1088.73C2499.64 1088.75 2498.97 1088.95 2498.38 1089.31C2497.03 1090.19 2495.91 1091.37 2495.1 1092.75C2494.3 1094.14 2493.83 1095.7 2493.74 1097.3C2493.74 1100.22 2495.84 1101.44 2498.4 1099.96C2500.28 1098.76 2501.71 1096.98 2502.46 1094.88C2502.67 1094.3 2503.05 1093.8 2503.57 1093.45C2503.75 1093.34 2503.96 1093.28 2504.18 1093.28C2504.82 1093.28 2505.05 1094.09 2504.7 1095C2503.48 1098.17 2501.28 1100.87 2498.4 1102.7C2494.44 1104.97 2491.2 1103.13 2491.17 1098.56C2491.32 1096.08 2492.05 1093.68 2493.29 1091.54C2494.54 1089.39 2496.27 1087.57 2498.35 1086.22V1086.22Z" fill="#E0E0E0"/>
<g opacity="0.3">
<path opacity="0.3" d="M2453.91 1111.88C2454.05 1111.79 2454.22 1111.74 2454.39 1111.74C2454.56 1111.74 2454.72 1111.79 2454.87 1111.88C2455.34 1112.2 2455.31 1113.17 2454.87 1114.01L2450.87 1120.57L2461.31 1114.36C2461.44 1114.26 2461.59 1114.19 2461.75 1114.18C2461.91 1114.17 2462.07 1114.2 2462.21 1114.28C2462.35 1114.36 2462.46 1114.48 2462.53 1114.62C2462.6 1114.77 2462.62 1114.93 2462.6 1115.09C2462.58 1115.54 2462.46 1115.98 2462.24 1116.37C2462.01 1116.77 2461.7 1117.1 2461.31 1117.34L2450.79 1123.4L2454.81 1125.33C2455.34 1125.59 2455.39 1126.49 2454.81 1127.34C2454.59 1127.76 2454.27 1128.12 2453.88 1128.39C2453.74 1128.46 2453.58 1128.49 2453.43 1128.49C2453.27 1128.49 2453.11 1128.46 2452.97 1128.39L2446.53 1125.3L2446.27 1125.03V1124.51V1123.87L2446.5 1123.34L2452.94 1112.79C2453.17 1112.4 2453.51 1112.09 2453.91 1111.88V1111.88Z" fill="black"/>
</g>
<g opacity="0.3">
<path opacity="0.3" d="M2476.71 1098.73C2476.84 1098.66 2476.99 1098.63 2477.15 1098.63C2477.3 1098.63 2477.45 1098.66 2477.58 1098.73L2484.03 1101.68L2484.26 1101.97V1102.49V1103.14V1103.28L2484.06 1103.81L2477.64 1114.36C2477.43 1114.72 2477.13 1115.02 2476.77 1115.24C2476.63 1115.33 2476.47 1115.38 2476.3 1115.38C2476.13 1115.38 2475.97 1115.33 2475.83 1115.24C2475.34 1114.95 2475.37 1113.98 2475.83 1113.11L2479.83 1106.58L2469.45 1112.76C2468.75 1113.14 2468.17 1112.76 2468.17 1112C2468.19 1111.56 2468.32 1111.13 2468.54 1110.75C2468.75 1110.36 2469.06 1110.03 2469.42 1109.78L2479.97 1103.72L2475.95 1101.79C2475.4 1101.53 2475.4 1100.63 2475.95 1099.72C2476.12 1099.34 2476.38 1099 2476.71 1098.73Z" fill="black"/>
</g>
<g opacity="0.3">
<path opacity="0.3" d="M2498.35 1086.22C2499.64 1085.38 2501.21 1085.09 2502.72 1085.4L2503.68 1084.12C2503.87 1083.86 2504.11 1083.65 2504.38 1083.48C2504.61 1083.41 2504.85 1083.41 2505.08 1083.48C2505.52 1083.48 2505.72 1084 2505.67 1084.65L2505.11 1088.61C2505.04 1089.09 2504.85 1089.54 2504.56 1089.92C2504.37 1090.18 2504.13 1090.4 2503.86 1090.57L2503.54 1090.71L2500.42 1091.59C2500.31 1091.62 2500.19 1091.63 2500.08 1091.62C2499.97 1091.6 2499.86 1091.56 2499.77 1091.49C2499.67 1091.43 2499.6 1091.34 2499.54 1091.24C2499.49 1091.14 2499.46 1091.03 2499.45 1090.92C2499.41 1090.27 2499.62 1089.63 2500.04 1089.14L2500.33 1088.73C2499.64 1088.75 2498.97 1088.95 2498.38 1089.31C2497.03 1090.19 2495.91 1091.37 2495.1 1092.75C2494.3 1094.14 2493.83 1095.7 2493.74 1097.3C2493.74 1100.22 2495.84 1101.44 2498.4 1099.96C2500.28 1098.76 2501.71 1096.98 2502.46 1094.88C2502.67 1094.3 2503.05 1093.8 2503.57 1093.45C2503.75 1093.34 2503.96 1093.28 2504.18 1093.28C2504.82 1093.28 2505.05 1094.09 2504.7 1095C2503.48 1098.17 2501.28 1100.87 2498.4 1102.7C2494.44 1104.97 2491.2 1103.13 2491.17 1098.56C2491.32 1096.08 2492.05 1093.68 2493.29 1091.54C2494.54 1089.39 2496.27 1087.57 2498.35 1086.22V1086.22Z" fill="black"/>
</g>
<g opacity="0.6">
<path opacity="0.6" d="M3160.25 856.647L3160.92 1029.89C3160.93 1037.73 3158.89 1045.44 3154.98 1052.24C3151.08 1059.04 3145.45 1064.7 3138.67 1068.64L2763.35 1286.41C2761.09 1287.72 2758.53 1288.41 2755.92 1288.42C2753.31 1288.42 2750.74 1287.74 2748.48 1286.44C2746.22 1285.14 2744.33 1283.27 2743.02 1281.01C2741.71 1278.75 2741.02 1276.19 2741.02 1273.58L2740.37 1100.34C2740.35 1092.49 2742.39 1084.78 2746.29 1077.98C2750.19 1071.18 2755.81 1065.52 2762.59 1061.58L3137.91 843.875C3140.17 842.567 3142.72 841.874 3145.33 841.865C3147.94 841.857 3150.5 842.533 3152.76 843.827C3155.02 845.12 3156.9 846.985 3158.22 849.235C3159.53 851.485 3160.23 854.041 3160.25 856.647V856.647Z" fill="white"/>
</g>
<path d="M3008.06 961.535L2932.74 1104.59L2911.43 1145.13L2926.09 1099.49L2884.57 1067.24L2838.32 1159.12L2838.5 1215.26L3081.2 1075.11L3081.02 1018.98L3008.06 961.535Z" fill="#E95FFF"/>
<path d="M2928.49 1037.38C2934.49 1033.46 2939.48 1028.19 2943.07 1021.98C2946.65 1015.78 2948.72 1008.81 2949.1 1001.66C2949.1 988.536 2939.77 983.229 2928.34 989.819C2922.33 993.728 2917.33 999.001 2913.75 1005.21C2910.17 1011.42 2908.1 1018.38 2907.72 1025.54C2907.75 1038.55 2917.05 1043.97 2928.49 1037.38Z" fill="#E95FFF"/>
<g opacity="0.3">
<path opacity="0.3" d="M3008.06 961.535L2932.74 1104.59L2911.43 1145.13L2926.09 1099.49L2884.57 1067.24L2838.32 1159.12L2838.5 1215.26L3081.2 1075.11L3081.02 1018.98L3008.06 961.535Z" fill="white"/>
<path opacity="0.3" d="M2928.48 1037.38C2934.49 1033.47 2939.48 1028.19 2943.06 1021.99C2946.65 1015.78 2948.71 1008.82 2949.1 1001.66C2949.1 988.539 2939.77 983.231 2928.34 989.822C2922.33 993.731 2917.33 999.004 2913.75 1005.21C2910.17 1011.42 2908.1 1018.39 2907.72 1025.54C2907.75 1038.55 2917.05 1043.97 2928.48 1037.38Z" fill="white"/>
</g>
<g opacity="0.6">
<path opacity="0.6" d="M2938.92 1218.2L2939.22 1322.83C2939.22 1326.37 2938.29 1329.85 2936.52 1332.92C2934.76 1335.99 2932.22 1338.54 2929.16 1340.32L2750.75 1443.87C2749.73 1444.46 2748.57 1444.76 2747.39 1444.76C2746.21 1444.76 2745.05 1444.45 2744.03 1443.86C2743.01 1443.27 2742.16 1442.42 2741.57 1441.4C2740.98 1440.38 2740.67 1439.22 2740.67 1438.04L2740.37 1333.38C2740.36 1329.84 2741.28 1326.35 2743.05 1323.28C2744.81 1320.21 2747.36 1317.65 2750.43 1315.88L2928.78 1212.4C2929.8 1211.8 2930.96 1211.48 2932.15 1211.47C2933.34 1211.46 2934.5 1211.77 2935.53 1212.36C2936.56 1212.95 2937.42 1213.8 2938.01 1214.82C2938.61 1215.85 2938.92 1217.01 2938.92 1218.2V1218.2Z" fill="white"/>
</g>
<path d="M2822.08 1305.86L2877.34 1310.61L2822.28 1379.02L2822.08 1305.86Z" fill="#E95FFF"/>
<g opacity="0.3">
<path opacity="0.3" d="M2822.08 1305.86L2877.34 1310.61L2822.28 1379.02L2822.08 1305.86Z" fill="white"/>
</g>
<g opacity="0.6">
<path opacity="0.6" d="M3158.21 1091.03L3158.5 1195.66C3158.51 1199.2 3157.58 1202.69 3155.82 1205.76C3154.05 1208.83 3151.51 1211.38 3148.44 1213.16L2971 1314.84C2969.98 1315.43 2968.81 1315.75 2967.63 1315.75C2966.44 1315.75 2965.28 1315.44 2964.25 1314.85C2963.23 1314.26 2962.38 1313.41 2961.78 1312.38C2961.19 1311.35 2960.88 1310.19 2960.88 1309.01L2960.59 1204.38C2960.59 1200.84 2961.52 1197.36 2963.28 1194.29C2965.05 1191.22 2967.59 1188.66 2970.65 1186.88L3148.09 1085.2C3149.11 1084.61 3150.28 1084.29 3151.46 1084.29C3152.65 1084.29 3153.81 1084.6 3154.84 1085.19C3155.86 1085.78 3156.71 1086.63 3157.31 1087.66C3157.9 1088.69 3158.21 1089.85 3158.21 1091.03V1091.03Z" fill="white"/>
</g>
<path d="M3039.56 1174.9L3094.78 1179.65L3039.76 1248.06L3039.56 1174.9Z" fill="#E95FFF"/>
<g opacity="0.3">
<path opacity="0.3" d="M3039.56 1174.9L3094.78 1179.65L3039.76 1248.06L3039.56 1174.9Z" fill="white"/>
</g>
<g opacity="0.7">
<path opacity="0.7" d="M2639.83 1083.31L2639.89 1109.7L2488.93 1196.86L2488.87 1170.49L2639.83 1083.31Z" fill="white"/>
<path opacity="0.7" d="M2579.24 1159.12L2579.29 1172.24L2489.02 1224.38L2488.99 1211.26L2579.24 1159.12Z" fill="white"/>
<path opacity="0.7" d="M2823.6 977.336L2823.65 992.733L2779.94 1017.96L2779.89 1002.59L2823.6 977.336Z" fill="white"/>
<path opacity="0.7" d="M2907.43 928.932L2907.46 944.329L2849.2 977.979L2849.17 962.583L2907.43 928.932Z" fill="white"/>
<path opacity="0.7" d="M3075.95 831.653L3075.98 847.049L3032.27 872.273L3032.24 856.905L3075.95 831.653Z" fill="white"/>
<path opacity="0.7" d="M3159.78 783.249L3159.81 798.645L3101.55 832.296L3101.49 816.899L3159.78 783.249Z" fill="white"/>
<path opacity="0.7" d="M3002.23 874.2L3002.26 889.596L2932.71 929.779L2932.66 914.382L3002.23 874.2Z" fill="white"/>
</g>
<g opacity="0.7">
<path opacity="0.7" d="M2641 1231.56L2641.03 1243.19L2489.19 1330.85L2489.16 1319.21L2641 1231.56Z" fill="white"/>
<path opacity="0.7" d="M2548.82 1304.98L2548.88 1316.59L2489.25 1351.02L2489.22 1339.39L2548.82 1304.98Z" fill="white"/>
<path opacity="0.7" d="M2641.17 1299.73L2641.2 1311.37L2489.39 1399.02L2489.37 1387.39L2641.17 1299.73Z" fill="white"/>
<path opacity="0.7" d="M2641.11 1279.55L2641.14 1291.16L2489.34 1378.81L2489.31 1367.21L2641.11 1279.55Z" fill="white"/>
<path opacity="0.7" d="M2640.94 1211.38L2640.97 1222.98L2489.13 1310.64L2489.1 1299.03L2640.94 1211.38Z" fill="white"/>
<path opacity="0.7" d="M2608.45 1338.83L2608.48 1350.44L2489.45 1419.17L2489.39 1407.57L2608.45 1338.83Z" fill="white"/>
</g>
<g opacity="0.7">
<path opacity="0.7" d="M2636.53 1411.8C2649.6 1404.24 2660.24 1410.31 2660.3 1425.33C2660.36 1440.34 2649.77 1458.66 2636.68 1466.15L2509.6 1539.55C2496.51 1547.1 2485.87 1541.06 2485.84 1526.01C2485.81 1510.97 2496.36 1492.69 2509.43 1485.19L2636.53 1411.8Z" fill="url(#paint9_linear)"/>
</g>
<path d="M2554.62 1476L2554.74 1496.36L2549.29 1499.48L2549.2 1490.23L2545.38 1499.92L2542.76 1501.43L2538.88 1496.53L2538.91 1505.48L2533.45 1508.63L2533.4 1488.25L2538.3 1485.42L2544.13 1492.95L2549.73 1478.83L2554.62 1476Z" fill="white"/>
<path d="M2566.87 1468.48C2572.7 1465.16 2576.87 1467.2 2576.9 1473.35C2576.72 1476.7 2575.71 1479.95 2573.97 1482.82C2572.24 1485.69 2569.82 1488.09 2566.93 1489.8C2561.1 1493.12 2556.9 1491.08 2556.87 1484.93C2557.06 1481.57 2558.07 1478.32 2559.81 1475.45C2561.55 1472.58 2563.98 1470.19 2566.87 1468.48ZM2566.87 1484.23C2568.1 1483.43 2569.1 1482.33 2569.79 1481.04C2570.49 1479.76 2570.85 1478.31 2570.84 1476.85C2570.84 1473.67 2569.06 1472.77 2566.84 1473.93C2565.62 1474.74 2564.62 1475.83 2563.94 1477.12C2563.25 1478.41 2562.89 1479.85 2562.91 1481.31C2562.91 1484.49 2564.68 1485.36 2566.87 1484.23Z" fill="white"/>
<path d="M2592.36 1468.33L2596.12 1472.45L2589.73 1476.15L2586.82 1472.77L2585.18 1473.7V1478.86L2579.35 1482.3V1461.89L2587.9 1456.93C2592.82 1454.02 2595.97 1455.24 2596 1459.85C2595.87 1463.03 2594.58 1466.05 2592.36 1468.33V1468.33ZM2587.22 1467.26C2587.94 1466.92 2588.54 1466.38 2588.97 1465.72C2589.4 1465.05 2589.63 1464.28 2589.65 1463.49C2589.65 1462.01 2588.86 1461.54 2587.22 1462.5L2585.04 1463.76V1468.51L2587.2 1467.26" fill="white"/>
<path d="M2612.33 1442.68L2612.36 1447.89L2603.82 1452.79V1455.18L2611.31 1450.87L2611.34 1455.8L2603.85 1460.11V1462.82L2612.71 1457.69V1462.88L2597.99 1471.37L2597.93 1451.02L2612.33 1442.68Z" fill="white"/>
<path d="M2980.51 1746.9L2980.48 1759.64L2893.76 1709.57L2893.79 1696.83L2980.51 1746.9Z" fill="url(#paint10_linear)"/>
<path d="M2980.57 1727.65L2980.51 1740.42L2945.25 1720.07L2945.28 1707.27L2980.57 1727.65Z" fill="url(#paint11_linear)"/>
<path d="M2836.78 1683.15L2836.75 1695.92L2774.32 1659.88L2774.35 1647.11L2836.78 1683.15Z" fill="url(#paint12_linear)"/>
<path d="M2874.48 1685.69L2874.45 1698.43L2774.38 1640.67L2774.4 1627.89L2874.48 1685.69Z" fill="url(#paint13_linear)"/>
<path d="M2928.49 1697.59L2928.46 1710.36L2829.4 1653.17L2819.75 1647.61L2773.76 1621.07L2773.79 1608.27L2819.81 1634.83L2829.46 1640.4L2928.49 1697.59Z" fill="url(#paint14_linear)"/>
<path d="M2899.62 1635.45L2899.59 1648.19L2774.55 1576.02L2774.61 1563.28L2899.62 1635.45Z" fill="url(#paint15_linear)"/>
<path d="M2892.44 1612.03L2892.39 1624.77L2867.98 1610.66L2868.01 1597.92L2892.44 1612.03Z" fill="url(#paint16_linear)"/>
<path d="M2885.33 1711.2L2885.3 1723.95L2850.04 1703.59L2850.07 1690.85L2885.33 1711.2Z" fill="url(#paint17_linear)"/>
<path d="M2980.74 1663L2980.71 1675.75L2911.19 1635.62L2911.22 1622.85L2980.74 1663Z" fill="url(#paint18_linear)"/>
<path d="M2980.8 1643.79L2980.77 1656.53L2932.16 1628.48L2921.43 1622.3L2857.01 1585.09L2857.04 1572.35L2921.46 1609.52L2932.19 1615.74L2980.8 1643.79Z" fill="url(#paint19_linear)"/>
<path d="M2928.84 1575.26L2928.78 1588.01L2847.89 1541.29L2847.92 1528.55L2928.84 1575.26Z" fill="url(#paint20_linear)"/>
<path d="M2847.74 1586.23L2847.71 1598.97L2774.61 1556.77L2774.64 1544.03L2847.74 1586.23Z" fill="url(#paint21_linear)"/>
<path d="M2837.13 1560.86L2837.1 1573.6L2774.67 1537.56L2774.69 1524.82L2837.13 1560.86Z" fill="url(#paint22_linear)"/>
<path d="M2829.78 1518.08L2829.75 1530.82L2774.11 1498.72L2774.14 1485.95L2829.78 1518.08Z" fill="url(#paint23_linear)"/>
<path d="M2874.83 1563.37L2874.8 1576.11L2774.72 1518.34L2774.75 1505.6L2874.83 1563.37Z" fill="url(#paint24_linear)"/>
<path d="M2856.43 1514.2L2856.4 1526.97L2774.17 1479.5L2774.2 1466.73L2856.43 1514.2Z" fill="url(#paint25_linear)"/>
<path d="M2980.86 1624.57L2980.83 1637.34L2894.11 1587.28L2894.14 1574.5L2980.86 1624.57Z" fill="url(#paint26_linear)"/>
<path d="M2980.92 1605.33L2980.86 1618.07L2945.6 1597.72L2945.63 1584.97L2980.92 1605.33Z" fill="url(#paint27_linear)"/>
<g opacity="0.6">
<path opacity="0.6" d="M2980.51 1746.9L2980.48 1759.64L2893.76 1709.57L2893.79 1696.83L2980.51 1746.9Z" fill="white"/>
<path opacity="0.6" d="M2980.57 1727.65L2980.51 1740.43L2945.25 1720.07L2945.28 1707.27L2980.57 1727.65Z" fill="white"/>
<g opacity="0.6">
<path opacity="0.6" d="M2836.78 1683.16L2836.75 1695.93L2774.32 1659.89L2774.35 1647.11L2836.78 1683.16Z" fill="white"/>
<path opacity="0.6" d="M2874.48 1685.69L2874.45 1698.44L2774.38 1640.67L2774.4 1627.9L2874.48 1685.69Z" fill="white"/>
<path opacity="0.6" d="M2928.49 1697.59L2928.46 1710.36L2829.4 1653.18L2819.75 1647.61L2773.76 1621.07L2773.79 1608.27L2819.81 1634.84L2829.46 1640.41L2928.49 1697.59Z" fill="white"/>
<path opacity="0.6" d="M2899.62 1635.45L2899.59 1648.19L2774.55 1576.02L2774.61 1563.28L2899.62 1635.45Z" fill="white"/>
<path opacity="0.6" d="M2892.44 1612.03L2892.39 1624.78L2867.98 1610.66L2868.01 1597.92L2892.44 1612.03Z" fill="white"/>
</g>
<path opacity="0.6" d="M2885.33 1711.21L2885.3 1723.95L2850.05 1703.6L2850.08 1690.85L2885.33 1711.21Z" fill="white"/>
<path opacity="0.6" d="M2980.74 1663L2980.71 1675.75L2911.19 1635.62L2911.22 1622.85L2980.74 1663Z" fill="white"/>
<path opacity="0.6" d="M2980.8 1643.79L2980.77 1656.53L2932.16 1628.48L2921.43 1622.3L2857.01 1585.09L2857.04 1572.35L2921.46 1609.52L2932.19 1615.74L2980.8 1643.79Z" fill="white"/>
<path opacity="0.6" d="M2928.84 1575.26L2928.78 1588.01L2847.89 1541.29L2847.92 1528.55L2928.84 1575.26Z" fill="white"/>
<path opacity="0.6" d="M2847.74 1586.23L2847.71 1598.97L2774.61 1556.77L2774.64 1544.03L2847.74 1586.23Z" fill="white"/>
<g opacity="0.6">
<path opacity="0.6" d="M2837.13 1560.86L2837.1 1573.6L2774.67 1537.56L2774.7 1524.81L2837.13 1560.86Z" fill="white"/>
<path opacity="0.6" d="M2829.78 1518.08L2829.75 1530.82L2774.11 1498.72L2774.14 1485.94L2829.78 1518.08Z" fill="white"/>
<path opacity="0.6" d="M2874.83 1563.36L2874.8 1576.11L2774.72 1518.34L2774.75 1505.6L2874.83 1563.36Z" fill="white"/>
<path opacity="0.6" d="M2856.43 1514.2L2856.4 1526.97L2774.17 1479.5L2774.2 1466.73L2856.43 1514.2Z" fill="white"/>
</g>
<path opacity="0.6" d="M2980.86 1624.57L2980.83 1637.34L2894.11 1587.28L2894.14 1574.5L2980.86 1624.57Z" fill="white"/>
<path opacity="0.6" d="M2980.92 1605.33L2980.86 1618.07L2945.6 1597.71L2945.63 1584.97L2980.92 1605.33Z" fill="white"/>
</g>
<path d="M2731.89 1498.57L2702.32 1481.08C2702.1 1480.94 2701.91 1480.76 2701.79 1480.53C2701.66 1480.31 2701.59 1480.05 2701.59 1479.79V1295.5L2663.45 1273.43L2664.94 1270.86L2703.81 1293.37C2704.04 1293.5 2704.23 1293.69 2704.36 1293.91C2704.49 1294.14 2704.56 1294.39 2704.57 1294.66V1479.03L2733.41 1496.01L2731.89 1498.57Z" fill="url(#paint28_linear)"/>
<path d="M2740.4 1489.65C2743.47 1491.65 2746.02 1494.35 2747.85 1497.52C2749.67 1500.69 2750.73 1504.25 2750.93 1507.9C2750.93 1514.61 2746.18 1517.32 2740.32 1513.94C2737.25 1511.94 2734.7 1509.24 2732.87 1506.07C2731.05 1502.9 2729.99 1499.34 2729.79 1495.68C2729.82 1488.98 2734.57 1486.27 2740.4 1489.65Z" fill="url(#paint29_linear)"/>
<path d="M2669.69 1263.07C2672.76 1265.07 2675.31 1267.77 2677.15 1270.94C2678.98 1274.11 2680.04 1277.67 2680.25 1281.33C2680.25 1288.03 2675.46 1290.75 2669.63 1287.36C2666.56 1285.36 2664.01 1282.67 2662.17 1279.5C2660.34 1276.33 2659.28 1272.77 2659.08 1269.11C2658.99 1262.43 2663.86 1259.72 2669.69 1263.07Z" fill="url(#paint30_linear)"/>
<g opacity="0.2">
<path opacity="0.2" d="M2731.89 1498.57L2702.32 1481.07C2702.1 1480.94 2701.91 1480.75 2701.79 1480.53C2701.66 1480.3 2701.59 1480.05 2701.59 1479.79V1295.5L2663.45 1273.42L2664.94 1270.86L2703.81 1293.37C2704.04 1293.5 2704.23 1293.68 2704.36 1293.91C2704.49 1294.13 2704.56 1294.39 2704.57 1294.65V1479.03L2733.41 1496L2731.89 1498.57Z" fill="white"/>
<path opacity="0.2" d="M2740.4 1489.64C2743.47 1491.65 2746.02 1494.34 2747.85 1497.52C2749.67 1500.69 2750.73 1504.24 2750.93 1507.9C2750.93 1514.61 2746.18 1517.32 2740.32 1513.94C2737.25 1511.93 2734.7 1509.24 2732.87 1506.06C2731.05 1502.89 2729.99 1499.34 2729.79 1495.68C2729.82 1488.97 2734.57 1486.26 2740.4 1489.64Z" fill="white"/>
<path opacity="0.2" d="M2669.69 1263.07C2672.76 1265.07 2675.31 1267.77 2677.15 1270.94C2678.98 1274.11 2680.04 1277.67 2680.25 1281.33C2680.25 1288.03 2675.46 1290.75 2669.63 1287.36C2666.56 1285.36 2664.01 1282.67 2662.17 1279.5C2660.34 1276.33 2659.28 1272.77 2659.08 1269.11C2658.99 1262.43 2663.86 1259.72 2669.69 1263.07Z" fill="white"/>
</g>
<path d="M3496.23 885.745L3496.17 898.517L3409.48 848.449L3409.51 835.677L3496.23 885.745Z" fill="url(#paint31_linear)"/>
<path d="M3496.26 866.498L3496.23 879.299L3460.98 858.917L3461.01 846.145L3496.26 866.498Z" fill="url(#paint32_linear)"/>
<path d="M3352.5 822.03L3352.47 834.773L3290.04 798.731L3290.07 785.988L3352.5 822.03Z" fill="url(#paint33_linear)"/>
<path d="M3390.21 824.538L3390.18 837.31L3290.1 779.515L3290.13 766.772L3390.21 824.538Z" fill="url(#paint34_linear)"/>
<path d="M3444.18 836.435L3444.15 849.236L3345.12 792.053L3335.47 786.484L3289.49 759.919L3289.52 747.118L3335.5 773.682L3345.15 779.252L3444.18 836.435Z" fill="url(#paint35_linear)"/>
<path d="M3401.05 850.053L3400.99 862.796L3365.77 842.472L3365.8 829.7L3401.05 850.053Z" fill="url(#paint36_linear)"/>
<g opacity="0.6">
<path opacity="0.6" d="M3496.23 885.744L3496.17 898.517L3409.48 848.449L3409.51 835.677L3496.23 885.744Z" fill="white"/>
<path opacity="0.6" d="M3496.26 866.498L3496.23 879.299L3460.98 858.917L3461.01 846.145L3496.26 866.498Z" fill="white"/>
<g opacity="0.6">
<path opacity="0.6" d="M3352.5 822.03L3352.47 834.773L3290.04 798.731L3290.07 785.988L3352.5 822.03Z" fill="white"/>
<path opacity="0.6" d="M3390.21 824.538L3390.18 837.31L3290.1 779.515L3290.13 766.772L3390.21 824.538Z" fill="white"/>
<path opacity="0.6" d="M3444.18 836.435L3444.15 849.236L3345.12 792.053L3335.47 786.484L3289.49 759.919L3289.52 747.118L3335.5 773.682L3345.15 779.252L3444.18 836.435Z" fill="white"/>
</g>
<path opacity="0.6" d="M3401.05 850.053L3401 862.796L3365.77 842.472L3365.8 829.7L3401.05 850.053Z" fill="white"/>
</g>
<path d="M3496.26 935.463L3496.23 948.235L3460.98 927.881L3461.01 915.109L3496.26 935.463Z" fill="url(#paint37_linear)"/>
<path d="M3390.21 893.503L3390.18 906.246L3290.1 848.48L3290.13 835.737L3390.21 893.503Z" fill="url(#paint38_linear)"/>
<path d="M3444.18 905.399L3444.15 918.171L3345.12 861.018L3335.47 855.419L3289.49 828.883L3289.52 816.082L3335.5 842.647L3345.15 848.216L3444.18 905.399Z" fill="url(#paint39_linear)"/>
<g opacity="0.6">
<path opacity="0.6" d="M3496.26 935.463L3496.23 948.235L3460.98 927.881L3461.01 915.109L3496.26 935.463Z" fill="white"/>
<g opacity="0.6">
<path opacity="0.6" d="M3390.21 893.503L3390.18 906.246L3290.1 848.48L3290.13 835.737L3390.21 893.503Z" fill="white"/>
<path opacity="0.6" d="M3444.18 905.399L3444.15 918.171L3345.12 861.018L3335.47 855.419L3289.49 828.883L3289.52 816.082L3335.5 842.647L3345.15 848.216L3444.18 905.399Z" fill="white"/>
</g>
</g>
<path d="M3342.15 895.659C3336.32 892.276 3331.56 894.988 3331.56 901.695C3331.66 904.95 3332.52 908.136 3334.07 910.997L3185.36 997.077L3138.47 969.725C3138.24 966.1 3137.17 962.578 3135.34 959.439C3133.52 956.301 3130.98 953.632 3127.94 951.646C3122.11 948.263 3117.35 950.975 3117.33 957.682C3117.53 961.337 3118.58 964.894 3120.41 968.065C3122.24 971.236 3124.79 973.933 3127.85 975.936C3132.72 978.852 3136.78 977.307 3138.03 973.02L3185.36 1000.63L3335.5 913.417C3337.16 916.019 3339.38 918.213 3342 919.832C3347.84 923.215 3352.59 920.503 3352.62 913.796C3352.41 910.166 3351.35 906.636 3349.53 903.487C3347.72 900.338 3345.19 897.657 3342.15 895.659V895.659Z" fill="url(#paint40_linear)"/>
<path opacity="0.2" d="M3342.15 895.659C3336.32 892.276 3331.56 894.988 3331.56 901.695C3331.66 904.95 3332.52 908.136 3334.07 910.997L3185.36 997.077L3138.47 969.725C3138.24 966.1 3137.17 962.578 3135.34 959.439C3133.52 956.301 3130.98 953.632 3127.94 951.646C3122.11 948.263 3117.35 950.975 3117.33 957.682C3117.53 961.337 3118.58 964.894 3120.41 968.065C3122.24 971.236 3124.79 973.933 3127.85 975.936C3132.72 978.852 3136.78 977.307 3138.03 973.02L3185.36 1000.63L3335.5 913.417C3337.16 916.019 3339.38 918.213 3342 919.832C3347.84 923.215 3352.59 920.503 3352.62 913.796C3352.41 910.166 3351.35 906.636 3349.53 903.487C3347.72 900.338 3345.19 897.657 3342.15 895.659V895.659Z" fill="white"/>
<path d="M3171.47 1348.57C3146.63 1365.83 3118.64 1377.73 3097.9 1400.91C3059.12 1444.1 3058.22 1513.65 3088.66 1563.04C3119.1 1612.44 3175.73 1642.15 3233.44 1648.98C3293.92 1656.09 3357.37 1639.38 3404.84 1601.21C3452.31 1563.04 3482.47 1503.38 3482.44 1442.5C3482.41 1381.61 3451.24 1320.96 3400.23 1287.69C3353.58 1257.33 3286.8 1248.67 3240.12 1283.4C3216.5 1300.9 3200.78 1326.88 3177.22 1344.49C3175.29 1345.89 3173.4 1347.23 3171.47 1348.57Z" fill="#37474F"/>
<path opacity="0.2" d="M3171.47 1348.57C3146.63 1365.83 3118.64 1377.73 3097.9 1400.91C3059.12 1444.1 3058.22 1513.65 3088.66 1563.04C3119.1 1612.44 3175.73 1642.15 3233.44 1648.98C3293.92 1656.09 3357.37 1639.38 3404.84 1601.21C3452.31 1563.04 3482.47 1503.38 3482.44 1442.5C3482.41 1381.61 3451.24 1320.96 3400.23 1287.69C3353.58 1257.33 3286.8 1248.67 3240.12 1283.4C3216.5 1300.9 3200.78 1326.88 3177.22 1344.49C3175.29 1345.89 3173.4 1347.23 3171.47 1348.57Z" fill="black"/>
<path opacity="0.1" d="M3171.47 1348.57C3146.63 1365.83 3118.64 1377.73 3097.9 1400.91C3059.12 1444.1 3058.22 1513.65 3088.66 1563.04C3119.1 1612.44 3175.73 1642.15 3233.44 1648.98C3293.92 1656.09 3357.37 1639.38 3404.84 1601.21C3452.31 1563.04 3482.47 1503.38 3482.44 1442.5C3482.41 1381.61 3451.24 1320.96 3400.23 1287.69C3353.58 1257.33 3286.8 1248.67 3240.12 1283.4C3216.5 1300.9 3200.78 1326.88 3177.22 1344.49C3175.29 1345.89 3173.4 1347.23 3171.47 1348.57Z" fill="white"/>
<path opacity="0.1" d="M3181.59 1601.74L3181.77 1600.52C3183.81 1587.02 3190.01 1574.51 3199.52 1564.72C3209.03 1554.93 3221.35 1548.36 3234.78 1545.93C3258.77 1541.35 3281.76 1532.54 3302.67 1519.92C3317.51 1510.96 3331.5 1499.97 3348.16 1495.1C3364.35 1490.47 3381.64 1491.5 3397.17 1498.02C3383.21 1483.44 3359.27 1476.85 3340.05 1483.44C3353.32 1463.03 3364.98 1441.27 3369.56 1417.45C3374.14 1393.62 3370.9 1367.5 3356.52 1347.96C3350.4 1339.64 3342.51 1332.79 3333.42 1327.88C3324.33 1322.98 3314.27 1320.14 3303.95 1319.58C3293.64 1319.03 3283.33 1320.76 3273.77 1324.66C3264.2 1328.55 3255.62 1334.52 3248.63 1342.13C3234.4 1357.7 3226.38 1379.57 3217.05 1398.47C3210.32 1412.05 3203.41 1425.93 3192.32 1436.37C3175.64 1451.97 3151.65 1457.6 3134.35 1472.53C3114.73 1489.47 3106.27 1516.53 3106.19 1542.52C3106.51 1560 3109.06 1577.37 3113.77 1594.22C3134.05 1613.57 3158.24 1628.35 3184.71 1637.58C3180.86 1626.05 3179.79 1613.76 3181.59 1601.74V1601.74Z" fill="black"/>
<g opacity="0.2">
<path opacity="0.2" d="M3449.92 1434.13C3449.13 1392.08 3433.46 1351.68 3405.7 1320.09C3377.94 1288.49 3339.89 1267.76 3298.29 1261.56C3292.52 1262.15 3286.79 1263.13 3281.15 1264.48C3324.89 1266.79 3366.13 1285.59 3396.58 1317.09C3427.02 1348.59 3444.4 1390.45 3445.23 1434.25C3446.34 1490.93 3418.63 1548.7 3371.07 1588.8C3333.81 1620.23 3284.29 1641.05 3229.88 1648.54L3233.38 1649.01C3238.25 1649.56 3243.18 1649.97 3247.96 1650.24C3296.28 1640.87 3340.08 1620.93 3373.93 1592.38C3422.72 1551.35 3451.06 1492.22 3449.92 1434.13Z" fill="white"/>
</g>
<path d="M3118.26 1582.82C3120 1592.15 3120.98 1601.61 3121.17 1611.1L3127.88 1608.56C3131.06 1607.36 3134.52 1607.13 3137.83 1607.88C3141.15 1608.63 3144.17 1610.34 3146.51 1612.79L3146.86 1613.14C3148.06 1614.4 3149.69 1615.15 3151.43 1615.23C3153.16 1615.31 3154.86 1614.72 3156.17 1613.58V1613.58C3156.87 1612.97 3157.44 1612.23 3157.84 1611.39C3158.24 1610.55 3158.47 1609.64 3158.5 1608.71L3159.4 1580.13L3118.26 1582.82Z" fill="#FFA8A7"/>
<path d="M3144.15 1688.81C3130.24 1703.71 3104.61 1716.75 3085.98 1704.03L3088.05 1708.79C3106.68 1721.47 3132.31 1708.47 3146.37 1693.57C3160.42 1678.66 3151.27 1668.34 3163.86 1655.13C3168.6 1650.62 3172.3 1645.12 3174.71 1639.04C3174.16 1637.64 3173.6 1635.77 3172.96 1633.64C3170.25 1639.84 3166.47 1645.52 3161.79 1650.41C3149.05 1663.73 3158.09 1674.06 3144.15 1688.81Z" fill="#F5F5F5"/>
<path d="M3165.9 1618.19C3163.77 1615.13 3162.27 1611.68 3161.5 1608.04C3161.38 1607.19 3161.07 1606.38 3160.59 1605.66C3160.12 1604.95 3159.49 1604.34 3158.76 1603.9L3158.61 1608.71C3158.57 1610.04 3158.13 1611.33 3157.36 1612.42C3156.58 1613.5 3155.5 1614.33 3154.26 1614.8C3153.01 1615.28 3151.65 1615.37 3150.35 1615.08C3149.05 1614.78 3147.87 1614.11 3146.95 1613.14L3146.6 1612.79C3144.25 1610.34 3141.23 1608.63 3137.92 1607.88C3134.61 1607.12 3131.15 1607.36 3127.97 1608.56L3121.14 1611.13C3120.13 1611.51 3119.26 1612.2 3118.66 1613.1C3118.05 1614 3117.74 1615.06 3117.76 1616.15C3118.2 1635.68 3109.01 1661.61 3099.51 1675.86C3089.68 1679.95 3081.17 1693.36 3085.51 1703.16L3085.95 1704.15C3104.58 1716.86 3130.21 1703.83 3144.12 1688.93C3158.03 1674.03 3149.02 1663.73 3161.62 1650.52C3166.3 1645.63 3170.08 1639.96 3172.79 1633.76C3171.22 1628.28 3168.9 1623.04 3165.9 1618.19Z" fill="#455A64"/>
<path d="M3138.64 1646.39C3139.2 1646.66 3139.85 1646.71 3140.44 1646.51C3141.04 1646.31 3141.53 1645.89 3141.82 1645.34C3142.11 1644.79 3142.17 1644.15 3141.99 1643.56C3141.81 1642.97 3141.4 1642.48 3140.86 1642.19C3136.77 1639.88 3132.16 1638.67 3127.47 1638.67C3122.78 1638.67 3118.17 1639.88 3114.09 1642.19C3113.68 1643.73 3113.24 1645.25 3112.77 1646.76C3116.69 1644.47 3121.12 1643.23 3125.66 1643.17C3130.19 1643.1 3134.66 1644.21 3138.64 1646.39V1646.39Z" fill="white"/>
<path d="M3142.08 1635.83C3142.63 1636.05 3143.25 1636.06 3143.8 1635.85C3144.36 1635.64 3144.82 1635.24 3145.1 1634.71C3145.37 1634.18 3145.44 1633.57 3145.28 1632.99C3145.13 1632.42 3144.77 1631.92 3144.27 1631.6C3139.99 1629.27 3135.2 1628.07 3130.33 1628.11C3125.46 1628.15 3120.68 1629.43 3116.45 1631.83C3116.16 1633.44 3115.84 1635.01 3115.49 1636.62C3123.59 1632.33 3131.79 1630.64 3142.08 1635.83Z" fill="white"/>
<path d="M3134.88 1656.91C3135.44 1657.18 3136.1 1657.22 3136.69 1657.02C3137.28 1656.82 3137.78 1656.39 3138.06 1655.83C3138.34 1655.28 3138.39 1654.64 3138.2 1654.05C3138.02 1653.47 3137.61 1652.97 3137.07 1652.68C3133.07 1650.42 3128.57 1649.21 3123.98 1649.16C3119.39 1649.11 3114.86 1650.24 3110.82 1652.42C3110.24 1654.08 3109.6 1655.69 3108.96 1657.29C3112.87 1654.99 3117.32 1653.74 3121.87 1653.67C3126.41 1653.61 3130.9 1654.72 3134.88 1656.91Z" fill="white"/>
<path d="M3099.54 1675.86C3089.71 1679.95 3081.2 1693.36 3085.54 1703.16L3085.98 1704.15C3104.32 1716.66 3129.46 1704.15 3143.51 1689.57C3131.79 1666.62 3107.29 1672.34 3099.54 1675.86Z" fill="white"/>
<path d="M3130.77 1667.17C3131.32 1667.4 3131.93 1667.4 3132.49 1667.2C3133.05 1666.99 3133.51 1666.58 3133.78 1666.05C3134.05 1665.53 3134.12 1664.92 3133.97 1664.34C3133.81 1663.77 3133.45 1663.27 3132.95 1662.95C3128.96 1660.69 3124.45 1659.48 3119.86 1659.44C3115.27 1659.4 3110.75 1660.53 3106.71 1662.71C3105.86 1664.52 3105.02 1666.27 3104.14 1667.96C3112.28 1663.68 3120.47 1661.96 3130.77 1667.17Z" fill="white"/>
<path d="M3088.98 1639.59C3086.81 1648.84 3083.89 1657.9 3080.23 1666.68L3087.38 1667.09C3090.77 1667.29 3094.03 1668.48 3096.76 1670.5C3099.49 1672.53 3101.57 1675.3 3102.74 1678.49V1678.93C3103.34 1680.56 3104.54 1681.9 3106.1 1682.68C3107.65 1683.46 3109.45 1683.61 3111.11 1683.1C3112 1682.81 3112.81 1682.36 3113.52 1681.75C3114.22 1681.14 3114.79 1680.4 3115.2 1679.57L3127.53 1653.79L3088.98 1639.59Z" fill="#FFA8A7"/>
<path d="M3069.85 1747.13C3051.1 1755.15 3022.38 1756.73 3010.48 1737.57V1742.76C3022.38 1761.89 3051.1 1760.26 3069.85 1752.32C3088.6 1744.39 3084.43 1731.24 3101.29 1724.21C3107.44 1721.98 3113.04 1718.45 3117.7 1713.86C3117.7 1712.32 3118.02 1710.42 3118.29 1708.2C3113.31 1712.8 3107.56 1716.46 3101.29 1719.02C3084.49 1726.05 3088.6 1739.14 3069.85 1747.13Z" fill="#F5F5F5"/>
<path d="M3118.29 1691.2C3117.53 1687.55 3117.53 1683.78 3118.29 1680.12C3118.52 1679.29 3118.56 1678.43 3118.41 1677.58C3118.27 1676.73 3117.93 1675.93 3117.44 1675.22L3115.37 1679.57C3114.96 1680.4 3114.39 1681.14 3113.69 1681.75C3112.99 1682.36 3112.17 1682.81 3111.29 1683.1C3109.62 1683.61 3107.83 1683.46 3106.27 1682.68C3104.72 1681.9 3103.52 1680.56 3102.92 1678.93V1678.49C3101.74 1675.3 3099.66 1672.53 3096.93 1670.5C3094.2 1668.48 3090.94 1667.29 3087.55 1667.09L3080.29 1666.68C3079.21 1666.62 3078.13 1666.9 3077.22 1667.47C3076.3 1668.04 3075.58 1668.89 3075.16 1669.89C3067.66 1687.94 3048.91 1708 3034.33 1717.19C3023.69 1716.92 3010.51 1725.76 3010.51 1736.52V1737.57C3022.41 1756.73 3051.13 1755.06 3069.88 1747.13C3088.63 1739.2 3084.46 1726.05 3101.32 1719.02C3107.58 1716.46 3113.34 1712.8 3118.32 1708.2C3119.1 1702.56 3119.09 1696.84 3118.29 1691.2V1691.2Z" fill="#455A64"/>
<path d="M3081.98 1705.99C3082.38 1706.43 3082.94 1706.71 3083.54 1706.76C3084.13 1706.81 3084.73 1706.63 3085.2 1706.26C3085.67 1705.89 3085.98 1705.36 3086.07 1704.76C3086.16 1704.17 3086.02 1703.57 3085.69 1703.07C3082.88 1699.32 3079.14 1696.36 3074.85 1694.47C3070.56 1692.59 3065.86 1691.84 3061.19 1692.31C3060.2 1693.58 3059.18 1694.8 3058.13 1695.99C3062.63 1695.45 3067.19 1696.09 3071.37 1697.84C3075.55 1699.6 3079.21 1702.4 3081.98 1705.99V1705.99Z" fill="white"/>
<path d="M3089.39 1697.71C3089.79 1698.19 3090.36 1698.49 3090.98 1698.55C3091.61 1698.61 3092.23 1698.42 3092.71 1698.03C3093.19 1697.63 3093.5 1697.07 3093.57 1696.45C3093.64 1695.84 3093.47 1695.22 3093.09 1694.73C3090.13 1690.87 3086.22 1687.83 3081.75 1685.9C3077.28 1683.97 3072.39 1683.21 3067.55 1683.71C3066.64 1685.05 3065.68 1686.39 3064.63 1687.7C3073.88 1687.06 3082.07 1688.81 3089.39 1697.71Z" fill="white"/>
<path d="M3074.31 1714.09C3074.71 1714.54 3075.27 1714.82 3075.87 1714.87C3076.46 1714.92 3077.06 1714.74 3077.53 1714.37C3078 1714 3078.31 1713.46 3078.4 1712.87C3078.49 1712.28 3078.36 1711.67 3078.02 1711.18C3075.27 1707.51 3071.65 1704.6 3067.48 1702.71C3063.31 1700.81 3058.73 1700.01 3054.16 1700.36C3052.97 1701.64 3051.74 1702.87 3050.49 1704.06C3054.99 1703.54 3059.55 1704.18 3063.72 1705.94C3067.9 1707.7 3071.55 1710.51 3074.31 1714.09V1714.09Z" fill="white"/>
<path d="M3034.31 1717.19C3023.66 1716.92 3010.48 1725.76 3010.48 1736.52V1737.57C3022.15 1756.44 3050.23 1755.06 3068.98 1747.48C3067.55 1721.73 3042.82 1717.07 3034.31 1717.19Z" fill="white"/>
<path d="M3066.38 1721.82C3066.79 1722.29 3067.36 1722.59 3067.98 1722.64C3068.61 1722.7 3069.22 1722.51 3069.71 1722.11C3070.19 1721.73 3070.5 1721.17 3070.57 1720.56C3070.64 1719.95 3070.47 1719.33 3070.08 1718.85C3067.34 1715.17 3063.71 1712.25 3059.54 1710.36C3055.36 1708.47 3050.77 1707.67 3046.2 1708.03C3044.72 1709.37 3043.29 1710.62 3041.74 1711.79C3050.9 1711.15 3059.06 1712.9 3066.38 1721.82Z" fill="white"/>
<path d="M3199.15 1395.7L3105.28 1447.98C3096.79 1452.74 3090 1460.03 3085.86 1468.83C3081.72 1477.64 3080.44 1487.52 3082.19 1497.09L3100.41 1595.21L3085.48 1642.65C3098.37 1659.95 3127.94 1660.82 3127.94 1660.82C3144.44 1627.72 3156.57 1613.67 3165.85 1585.94C3175.12 1558.21 3181.48 1539.05 3181.48 1539.05L3259.42 1517.76C3277.25 1512.92 3293.21 1502.84 3305.25 1488.83C3317.29 1474.82 3324.85 1457.53 3326.96 1439.17C3328.3 1427.37 3328.36 1419.32 3328.36 1419.32L3199.15 1395.7Z" fill="url(#paint41_linear)"/>
<path opacity="0.3" d="M3199.15 1395.7L3105.28 1447.98C3096.79 1452.74 3090 1460.03 3085.86 1468.83C3081.72 1477.64 3080.44 1487.52 3082.19 1497.09L3100.41 1595.21L3085.48 1642.65C3098.37 1659.95 3127.94 1660.82 3127.94 1660.82C3144.44 1627.72 3156.57 1613.67 3165.85 1585.94C3175.12 1558.21 3181.48 1539.05 3181.48 1539.05L3259.42 1517.76C3277.25 1512.92 3293.21 1502.84 3305.25 1488.83C3317.29 1474.82 3324.85 1457.53 3326.96 1439.17C3328.3 1427.37 3328.36 1419.32 3328.36 1419.32L3199.15 1395.7Z" fill="black"/>
<path opacity="0.1" d="M3199.15 1395.7L3105.28 1447.98C3096.79 1452.74 3090 1460.03 3085.86 1468.83C3081.72 1477.64 3080.44 1487.52 3082.19 1497.09L3100.41 1595.21L3085.48 1642.65C3098.37 1659.95 3127.94 1660.82 3127.94 1660.82C3144.44 1627.72 3156.57 1613.67 3165.85 1585.94C3175.12 1558.21 3181.48 1539.05 3181.48 1539.05L3259.42 1517.76C3277.25 1512.92 3293.21 1502.84 3305.25 1488.83C3317.29 1474.82 3324.85 1457.53 3326.96 1439.17C3328.3 1427.37 3328.36 1419.32 3328.36 1419.32L3199.15 1395.7Z" fill="white"/>
<path opacity="0.2" d="M3199.85 1422.05C3199.85 1432.53 3203.57 1442.67 3210.34 1450.66L3144.12 1492.13C3134.4 1498.2 3127.21 1507.58 3123.86 1518.55L3100.53 1595.21L3121.67 1509.83C3124.11 1500 3130.29 1491.53 3138.9 1486.21L3200.14 1448.3C3193.67 1432.79 3199.85 1422.05 3199.85 1422.05Z" fill="black"/>
<path d="M3137.04 1287.92L3115.92 1306.99C3102.42 1289.76 3084.32 1278.12 3068.48 1253.98C3063.93 1248.15 3064.4 1236.69 3061.31 1230.8C3058.86 1226.19 3054.6 1219.13 3052.82 1215.37C3052.67 1215.02 3052.43 1214.7 3052.14 1214.46C3051.85 1214.21 3051.5 1214.02 3051.13 1213.93C3050.76 1213.83 3050.37 1213.82 3049.99 1213.89C3049.61 1213.96 3049.25 1214.12 3048.94 1214.35C3044.6 1217.67 3046.96 1225.43 3049.29 1233.57C3052.06 1243.19 3037.63 1230.15 3035.59 1227.94C3026.37 1219.36 3018.47 1198.34 3012.26 1200.44C3006.05 1202.54 3010.95 1213.01 3010.95 1213.01C3005.12 1214.23 3007.36 1223.45 3007.36 1223.45C3003.95 1229.48 3004.91 1238.79 3011.94 1247.45C3017.04 1253.72 3030.84 1262.35 3038.01 1266.57C3040.99 1268.35 3043.53 1270.76 3045.47 1273.63L3090.56 1340.87C3092.61 1343.91 3095.25 1346.51 3098.33 1348.49C3101.42 1350.48 3104.87 1351.82 3108.48 1352.44C3112.1 1353.05 3115.8 1352.92 3119.37 1352.06C3122.93 1351.2 3126.28 1349.63 3129.22 1347.44L3159.93 1324.46L3137.04 1287.92Z" fill="#FFA8A7"/>
<path opacity="0.3" d="M3137.04 1287.92L3115.92 1306.99C3102.42 1289.76 3084.32 1278.12 3068.48 1253.98C3063.93 1248.15 3064.4 1236.69 3061.31 1230.8C3058.86 1226.19 3054.6 1219.13 3052.82 1215.37C3052.67 1215.02 3052.43 1214.7 3052.14 1214.46C3051.85 1214.21 3051.5 1214.02 3051.13 1213.93C3050.76 1213.83 3050.37 1213.82 3049.99 1213.89C3049.61 1213.96 3049.25 1214.12 3048.94 1214.35C3044.6 1217.67 3046.96 1225.43 3049.29 1233.57C3052.06 1243.19 3037.63 1230.15 3035.59 1227.94C3026.37 1219.36 3018.47 1198.34 3012.26 1200.44C3006.05 1202.54 3010.95 1213.01 3010.95 1213.01C3005.12 1214.23 3007.36 1223.45 3007.36 1223.45C3003.95 1229.48 3004.91 1238.79 3011.94 1247.45C3017.04 1253.72 3030.84 1262.35 3038.01 1266.57C3040.99 1268.35 3043.53 1270.76 3045.47 1273.63L3090.56 1340.87C3092.61 1343.91 3095.25 1346.51 3098.33 1348.49C3101.42 1350.48 3104.87 1351.82 3108.48 1352.44C3112.1 1353.05 3115.8 1352.92 3119.37 1352.06C3122.93 1351.2 3126.28 1349.63 3129.22 1347.44L3159.93 1324.46L3137.04 1287.92Z" fill="#D8BBBB"/>
<path d="M3205.36 1235.11C3182.44 1234.12 3152.02 1268.12 3132.46 1288.5C3136.24 1304.63 3145.24 1319.05 3158.06 1329.53C3174.49 1317.96 3190.28 1305.51 3205.36 1292.23V1235.11Z" fill="#455A64"/>
<path opacity="0.3" d="M3205.36 1235.11C3182.44 1234.12 3152.02 1268.12 3132.46 1288.5C3136.24 1304.63 3145.24 1319.05 3158.06 1329.53C3174.49 1317.96 3190.28 1305.51 3205.36 1292.23V1235.11Z" fill="white"/>
<path d="M3329.93 1426.63C3313.28 1442.64 3233.32 1445.59 3192.53 1406.75C3196.44 1379.31 3195.12 1349.94 3192.53 1320.9C3189.93 1291.86 3172.93 1241.03 3205.36 1235.11C3248.66 1226.66 3276.95 1227.33 3305.9 1243.63C3336.78 1295.15 3332.58 1372.13 3329.93 1426.63Z" fill="#455A64"/>
<path d="M3329.93 1426.63C3313.28 1442.64 3233.32 1445.59 3192.53 1406.75C3196.44 1379.31 3195.12 1349.94 3192.53 1320.9C3189.93 1291.86 3172.93 1241.03 3205.36 1235.11C3248.66 1226.66 3276.95 1227.33 3305.9 1243.63C3336.78 1295.15 3332.58 1372.13 3329.93 1426.63Z" fill="url(#paint42_linear)"/>
<path opacity="0.2" d="M3329.93 1426.63C3313.28 1442.64 3233.32 1445.59 3192.53 1406.75C3196.44 1379.31 3195.12 1349.94 3192.53 1320.9C3189.93 1291.86 3172.93 1241.03 3205.36 1235.11C3248.66 1226.66 3276.95 1227.33 3305.9 1243.63C3336.78 1295.15 3332.58 1372.13 3329.93 1426.63Z" fill="white"/>
<path d="M3073.06 1435.82L3183.17 1499.27L3183.58 1499.48H3183.84L3184.68 1499.74H3185.3H3185.7H3186.78C3187.16 1499.77 3187.54 1499.77 3187.92 1499.74H3188.65L3189.52 1499.51C3189.79 1499.43 3190.04 1499.32 3190.28 1499.18L3225.8 1478.86L3112.08 1413.22L3073.06 1435.82Z" fill="#E0E0E0"/>
<path d="M3180.43 1507.57L3071.49 1441.24C3080.28 1431.59 3070.89 1441 3071.49 1441.24C3077.44 1432.88 3080.28 1432.09 3071.49 1441.24C3077.79 1433.25 3078.33 1431.39 3071.49 1441.24C3070.89 1441.55 3077.79 1433.25 3071.49 1441.24L3144.49 1405.74C3154.99 1401.24 3154.91 1400.37 3156.99 1400.24C3159.07 1400.1 3159.11 1400.5 3160.99 1401.24L3269.38 1457.23C3269.98 1457.47 3270.49 1457.87 3270.84 1458.39C3271.2 1458.92 3271.39 1459.54 3271.39 1460.19C3271.4 1460.84 3271.21 1461.49 3270.86 1462.06C3270.5 1462.63 3270 1463.1 3269.4 1463.41L3200.44 1500.36C3198.57 1501.35 3187.65 1508.34 3185.57 1508.47C3183.49 1508.61 3182.31 1508.32 3180.43 1507.57Z" fill="#9D9D9D"/>
<path d="M3180.44 1505.34L3071.5 1439C3080.28 1429.35 3070.9 1438.76 3071.5 1439C3077.45 1430.65 3080.28 1429.85 3071.5 1439C3077.8 1431.02 3078.33 1429.15 3071.5 1439C3070.9 1439.31 3077.8 1431.02 3071.5 1439L3144.5 1403.5C3155 1399 3156.92 1397.14 3159 1397C3161.08 1396.86 3160.62 1397.26 3162.5 1398L3269.39 1454.99C3269.99 1455.23 3270.5 1455.63 3270.85 1456.16C3271.21 1456.68 3271.4 1457.31 3271.4 1457.95C3271.4 1458.6 3271.22 1459.25 3270.87 1459.82C3270.51 1460.39 3270.01 1460.86 3269.41 1461.18L3200.45 1498.12C3198.57 1499.12 3187.66 1506.1 3185.58 1506.24C3183.5 1506.38 3182.32 1506.08 3180.44 1505.34Z" fill="#E0E0E0"/>
<path d="M3177.8 1418.35L3157.1 1430.54C3156.78 1430.72 3156.51 1430.98 3156.32 1431.3C3156.14 1431.62 3156.04 1431.98 3156.04 1432.35C3156.04 1432.72 3156.14 1433.08 3156.32 1433.4C3156.51 1433.72 3156.78 1433.98 3157.1 1434.16L3188.07 1452.03C3188.59 1452.34 3189.19 1452.5 3189.8 1452.5C3190.41 1452.5 3191.01 1452.34 3191.54 1452.03L3212.24 1439.87C3212.56 1439.69 3212.82 1439.42 3213 1439.11C3213.18 1438.79 3213.27 1438.43 3213.27 1438.06C3213.27 1437.7 3213.18 1437.34 3213 1437.02C3212.82 1436.71 3212.56 1436.44 3212.24 1436.26L3181.27 1418.35C3180.75 1418.04 3180.15 1417.88 3179.54 1417.88C3178.93 1417.88 3178.33 1418.04 3177.8 1418.35V1418.35Z" fill="#E0E0E0"/>
<path opacity="0.4" d="M3073.06 1435.82L3183.17 1499.27L3183.58 1499.48H3183.84L3184.68 1499.74H3185.3H3185.7H3186.78C3187.16 1499.77 3187.54 1499.77 3187.92 1499.74H3188.65L3189.52 1499.51C3189.79 1499.43 3190.04 1499.32 3190.28 1499.18L3225.8 1478.86L3112.08 1413.22L3073.06 1435.82Z" fill="black"/>
<path opacity="0.4" d="M3177.8 1418.35L3157.1 1430.54C3156.78 1430.72 3156.51 1430.98 3156.32 1431.3C3156.14 1431.62 3156.04 1431.98 3156.04 1432.35C3156.04 1432.72 3156.14 1433.08 3156.32 1433.4C3156.51 1433.72 3156.78 1433.98 3157.1 1434.16L3188.07 1452.03C3188.59 1452.34 3189.19 1452.5 3189.8 1452.5C3190.41 1452.5 3191.01 1452.34 3191.54 1452.03L3212.24 1439.87C3212.56 1439.69 3212.82 1439.42 3213 1439.11C3213.18 1438.79 3213.27 1438.43 3213.27 1438.06C3213.27 1437.7 3213.18 1437.34 3213 1437.02C3212.82 1436.71 3212.56 1436.44 3212.24 1436.26L3181.27 1418.35C3180.75 1418.04 3180.15 1417.88 3179.54 1417.88C3178.93 1417.88 3178.33 1418.04 3177.8 1418.35V1418.35Z" fill="black"/>
<path d="M3186.08 1501.28L3174.42 1426.69C3174.11 1424.67 3173.34 1422.74 3172.19 1421.05C3171.03 1419.36 3169.51 1417.95 3167.74 1416.92L3053.58 1350.56C3053.14 1350.31 3052.65 1350.16 3052.14 1350.13C3051.64 1350.09 3051.13 1350.17 3050.66 1350.35V1350.35L3047.95 1351.69L3048.86 1352.04C3048.55 1352.67 3048.45 1353.37 3048.56 1354.05L3060.23 1428.67C3060.55 1430.69 3061.31 1432.62 3062.46 1434.3C3063.62 1435.99 3065.14 1437.39 3066.91 1438.41L3180.95 1504.78C3181.19 1504.91 3181.45 1505.02 3181.71 1505.1V1506.18L3184.33 1504.9C3184.97 1504.56 3185.48 1504.03 3185.8 1503.38C3186.11 1502.73 3186.21 1501.99 3186.08 1501.28V1501.28Z" fill="#E0E0E0"/>
<path opacity="0.3" d="M3186.08 1501.28L3174.42 1426.69C3174.11 1424.67 3173.34 1422.74 3172.19 1421.05C3171.03 1419.36 3169.51 1417.95 3167.74 1416.92L3053.58 1350.55C3053.14 1350.31 3052.65 1350.16 3052.14 1350.12C3051.64 1350.09 3051.13 1350.17 3050.66 1350.35V1350.35L3047.95 1351.69L3048.86 1352.04C3048.55 1352.67 3048.45 1353.37 3048.56 1354.05L3060.23 1428.67C3060.55 1430.69 3061.31 1432.62 3062.46 1434.3C3063.62 1435.99 3065.14 1437.39 3066.91 1438.41L3180.95 1504.78C3181.19 1504.91 3181.45 1505.02 3181.71 1505.1V1506.18L3184.33 1504.9C3184.97 1504.56 3185.48 1504.03 3185.8 1503.38C3186.11 1502.73 3186.21 1501.99 3186.08 1501.28V1501.28Z" fill="black"/>
<path d="M3165.38 1418.06L3051.28 1351.72C3050.71 1351.39 3050.07 1351.23 3049.41 1351.25C3048.76 1351.28 3048.13 1351.49 3047.59 1351.86C3047.05 1352.23 3046.63 1352.74 3046.38 1353.34C3046.12 1353.94 3046.04 1354.6 3046.15 1355.25L3057.81 1429.84C3058.14 1431.86 3058.91 1433.78 3060.07 1435.47C3061.23 1437.16 3062.75 1438.57 3064.52 1439.61L3178.62 1505.95C3179.18 1506.28 3179.83 1506.44 3180.48 1506.42C3181.13 1506.39 3181.77 1506.18 3182.31 1505.81C3182.84 1505.44 3183.27 1504.93 3183.52 1504.33C3183.78 1503.73 3183.86 1503.06 3183.75 1502.42L3172.09 1427.83C3171.76 1425.8 3170.99 1423.88 3169.83 1422.19C3168.67 1420.5 3167.15 1419.09 3165.38 1418.06V1418.06Z" fill="#E0E0E0"/>
<path d="M3110.09 1419.99C3112.99 1421.8 3115.48 1424.18 3117.42 1426.99C3119.37 1429.8 3120.72 1432.97 3121.41 1436.32C3122.17 1442.15 3118.32 1444.31 3112.66 1441.1C3109.77 1439.29 3107.28 1436.91 3105.33 1434.11C3103.39 1431.31 3102.03 1428.14 3101.35 1424.8C3100.7 1418.97 3104.58 1416.84 3110.09 1419.99Z" fill="white"/>
<path d="M3356.06 1371.96L3343.81 1326.41L3300.86 1335.98L3311.15 1371.29L3248.19 1415.99L3227.02 1424.91C3221.42 1427.27 3216.57 1431.13 3213 1436.05L3195.74 1459.96C3195.59 1460.28 3195.53 1460.63 3195.56 1460.98C3195.65 1461.62 3195.93 1462.21 3196.36 1462.69C3196.78 1463.17 3197.34 1463.51 3197.96 1463.68C3198.58 1463.85 3199.23 1463.83 3199.84 1463.63C3200.45 1463.43 3200.99 1463.06 3201.39 1462.56C3205.21 1458.18 3208.42 1454.13 3212.42 1450.31L3202.24 1464.05C3201.92 1464.51 3201.71 1465.03 3201.6 1465.58C3201.5 1466.13 3201.5 1466.69 3201.62 1467.24C3201.74 1467.78 3201.98 1468.3 3202.3 1468.75C3202.63 1469.21 3203.04 1469.59 3203.52 1469.88C3204.67 1470.57 3205.91 1471.11 3207.2 1471.48C3209.69 1472.11 3212.3 1472.12 3214.79 1471.49C3217.29 1470.87 3219.59 1469.63 3221.48 1467.89L3234.81 1455.68L3238.48 1454.39C3249.25 1450.59 3258.6 1443.58 3265.25 1434.3L3339.06 1405.64C3345.55 1403.12 3350.88 1398.28 3354.02 1392.06C3357.16 1385.84 3357.88 1378.68 3356.06 1371.96V1371.96Z" fill="#FFA8A7"/>
<path opacity="0.3" d="M3356.06 1371.96L3343.81 1326.41L3300.86 1335.98L3311.15 1371.29L3248.19 1415.99L3227.02 1424.91C3221.42 1427.27 3216.57 1431.13 3213 1436.05L3195.74 1459.96C3195.59 1460.28 3195.53 1460.63 3195.56 1460.98C3195.65 1461.62 3195.93 1462.21 3196.36 1462.69C3196.78 1463.17 3197.34 1463.51 3197.96 1463.68C3198.58 1463.85 3199.23 1463.83 3199.84 1463.63C3200.45 1463.43 3200.99 1463.06 3201.39 1462.56C3205.21 1458.18 3208.42 1454.13 3212.42 1450.31L3202.24 1464.05C3201.92 1464.51 3201.71 1465.03 3201.6 1465.58C3201.5 1466.13 3201.5 1466.69 3201.62 1467.24C3201.74 1467.78 3201.98 1468.3 3202.3 1468.75C3202.63 1469.21 3203.04 1469.59 3203.52 1469.88C3204.67 1470.57 3205.91 1471.11 3207.2 1471.48C3209.69 1472.11 3212.3 1472.12 3214.79 1471.49C3217.29 1470.87 3219.59 1469.63 3221.48 1467.89L3234.81 1455.68L3238.48 1454.39C3249.25 1450.59 3258.6 1443.58 3265.25 1434.3L3339.06 1405.64C3345.55 1403.12 3350.88 1398.28 3354.02 1392.06C3357.16 1385.84 3357.88 1378.68 3356.06 1371.96V1371.96Z" fill="#D8BBBB"/>
<path d="M3350.55 1332.36L3349.23 1326.32C3333.63 1255.41 3321.18 1250.36 3300.27 1240.65C3279.86 1258.38 3283.33 1288.53 3283.33 1288.53L3301.56 1343.09L3302.11 1344.66C3310.6 1346 3319.27 1345.6 3327.59 1343.48C3335.92 1341.37 3343.73 1337.58 3350.55 1332.36V1332.36Z" fill="#455A64"/>
<path opacity="0.3" d="M3350.55 1332.36L3349.23 1326.32C3333.63 1255.41 3321.18 1250.36 3300.27 1240.65C3279.86 1258.38 3283.33 1288.53 3283.33 1288.53L3301.56 1343.09L3302.11 1344.66C3310.6 1346 3319.27 1345.6 3327.59 1343.48C3335.92 1341.37 3343.73 1337.58 3350.55 1332.36V1332.36Z" fill="white"/>
<path d="M3271.17 1183.91C3275.52 1171.05 3277.81 1157.59 3277.97 1144.02C3277.97 1136.78 3277.24 1128.88 3272.13 1123.6C3266.04 1117.36 3255.6 1117.42 3247.82 1121.36C3240.03 1125.29 3234.31 1132.26 3228.83 1139.03C3231.53 1150.84 3235.56 1162.3 3240.85 1173.2C3243.59 1178.51 3246.91 1183.91 3252.22 1186.62C3257.53 1189.33 3266.45 1187.58 3271.17 1183.91Z" fill="#455A64"/>
<path d="M3232.65 1267.22C3222.18 1273.84 3208.59 1261.56 3220.75 1243.66C3220.83 1243.56 3220.88 1243.45 3220.9 1243.34V1213.5L3260.38 1191.72L3261.29 1231.58C3257.06 1243.92 3241.75 1261.44 3232.65 1267.22Z" fill="#FFA8A7"/>
<path opacity="0.3" d="M3232.65 1267.22C3222.18 1273.84 3208.59 1261.56 3220.75 1243.66C3220.83 1243.56 3220.88 1243.45 3220.9 1243.34V1213.5L3260.38 1191.72L3261.29 1231.58C3257.06 1243.92 3241.75 1261.44 3232.65 1267.22Z" fill="#D8BBBB"/>
<path opacity="0.2" d="M3241.23 1223.04C3234.64 1226.22 3226.41 1229.43 3220.81 1231.5V1213.5L3260.3 1191.72C3260.06 1211.46 3252.19 1217.73 3241.23 1223.04Z" fill="black"/>
<path d="M3186.43 1136.99C3184.97 1156.64 3185.24 1176.38 3187.25 1195.98C3187.65 1200.01 3188.89 1203.91 3190.89 1207.43C3192.89 1210.96 3195.6 1214.03 3198.84 1216.45C3202.09 1218.87 3205.81 1220.58 3209.76 1221.49C3213.7 1222.39 3217.8 1222.46 3221.78 1221.7C3228.25 1220.36 3234.43 1218.78 3239.68 1217.41C3244.34 1216.15 3248.58 1213.65 3251.95 1210.18C3255.31 1206.71 3257.68 1202.4 3258.81 1197.7L3260.27 1191.63C3262 1193.81 3264.42 1195.33 3267.13 1195.97C3269.83 1196.6 3272.68 1196.31 3275.2 1195.13C3277.72 1193.95 3279.92 1192.15 3281.57 1189.91C3283.23 1187.66 3284.29 1185.04 3284.67 1182.27C3285.17 1179.55 3284.93 1176.74 3283.97 1174.14C3282.97 1171.56 3281 1169.47 3278.49 1168.31C3276.18 1167.51 3273.68 1167.44 3271.32 1168.11C3268.97 1168.79 3266.88 1170.17 3265.34 1172.07C3262.31 1175.93 3260.46 1180.59 3260.03 1185.48C3252.76 1177.29 3249.02 1166.56 3249.65 1155.62C3245.97 1155.23 3242.56 1153.49 3240.09 1150.72C3239.06 1149.35 3238.31 1147.78 3237.89 1146.11C3237.47 1144.45 3237.38 1142.71 3237.64 1141.01C3222.21 1148.74 3200.93 1146.64 3186.43 1136.99Z" fill="#FFA8A7"/>
<path opacity="0.3" d="M3186.43 1136.99C3184.97 1156.64 3185.24 1176.38 3187.25 1195.98C3187.65 1200.01 3188.89 1203.91 3190.89 1207.43C3192.89 1210.96 3195.6 1214.03 3198.84 1216.45C3202.09 1218.87 3205.81 1220.58 3209.76 1221.49C3213.7 1222.39 3217.8 1222.46 3221.78 1221.7C3228.25 1220.36 3234.43 1218.78 3239.68 1217.41C3244.34 1216.15 3248.58 1213.65 3251.95 1210.18C3255.31 1206.71 3257.68 1202.4 3258.81 1197.7L3260.27 1191.63C3262 1193.81 3264.42 1195.33 3267.13 1195.97C3269.83 1196.6 3272.68 1196.31 3275.2 1195.13C3277.72 1193.95 3279.92 1192.15 3281.57 1189.91C3283.23 1187.66 3284.29 1185.04 3284.67 1182.27C3285.17 1179.55 3284.93 1176.74 3283.97 1174.14C3282.97 1171.56 3281 1169.47 3278.49 1168.31C3276.18 1167.51 3273.68 1167.44 3271.32 1168.11C3268.97 1168.79 3266.88 1170.17 3265.34 1172.07C3262.31 1175.93 3260.46 1180.59 3260.03 1185.48C3252.76 1177.29 3249.02 1166.56 3249.65 1155.62C3245.97 1155.23 3242.56 1153.49 3240.09 1150.72C3239.06 1149.35 3238.31 1147.78 3237.89 1146.11C3237.47 1144.45 3237.38 1142.71 3237.64 1141.01C3222.21 1148.74 3200.93 1146.64 3186.43 1136.99Z" fill="#FFDEDE"/>
<path d="M3213.99 1170L3200.28 1186.62L3212.88 1191.05L3213.99 1170Z" fill="#F28F8F"/>
<path opacity="0.3" d="M3213.99 1170L3200.28 1186.62L3212.88 1191.05L3213.99 1170Z" fill="#F1BFBF"/>
<path d="M3224.37 1199.3L3213.79 1202.54C3214.46 1203.79 3215.52 1204.79 3216.81 1205.38C3218.09 1205.98 3219.54 1206.14 3220.93 1205.83C3222.17 1205.31 3223.19 1204.37 3223.81 1203.18C3224.44 1201.99 3224.64 1200.62 3224.37 1199.3Z" fill="#F28F8F"/>
<path opacity="0.4" d="M3224.37 1199.3L3213.79 1202.54C3214.46 1203.79 3215.52 1204.79 3216.81 1205.38C3218.09 1205.98 3219.54 1206.14 3220.93 1205.83C3222.17 1205.31 3223.19 1204.37 3223.81 1203.18C3224.44 1201.99 3224.64 1200.62 3224.37 1199.3Z" fill="black"/>
<path d="M3217.46 1205.63C3218.57 1206.03 3219.78 1206.1 3220.93 1205.83C3221.91 1205.46 3222.76 1204.81 3223.37 1203.96C3223.98 1203.11 3224.33 1202.1 3224.37 1201.05C3222.96 1200.83 3221.51 1201.09 3220.26 1201.78C3218.86 1202.65 3217.86 1204.03 3217.46 1205.63V1205.63Z" fill="#F28F8F"/>
<path d="M3232.65 1173.64C3232.61 1174.38 3232.35 1175.1 3231.9 1175.69C3231.46 1176.29 3230.84 1176.73 3230.14 1176.98C3229.44 1177.23 3228.68 1177.26 3227.96 1177.08C3227.24 1176.89 3226.59 1176.5 3226.1 1175.94C3225.6 1175.39 3225.28 1174.7 3225.17 1173.97C3225.07 1173.23 3225.18 1172.48 3225.5 1171.81C3225.82 1171.14 3226.34 1170.58 3226.98 1170.2C3227.61 1169.82 3228.35 1169.64 3229.09 1169.68C3229.59 1169.7 3230.07 1169.82 3230.52 1170.04C3230.97 1170.25 3231.37 1170.55 3231.7 1170.92C3232.03 1171.29 3232.28 1171.72 3232.45 1172.19C3232.61 1172.65 3232.68 1173.15 3232.65 1173.64V1173.64Z" fill="#263238"/>
<path d="M3201.16 1170.73C3201.12 1171.47 3200.87 1172.19 3200.43 1172.79C3199.98 1173.39 3199.37 1173.84 3198.67 1174.09C3197.97 1174.34 3197.21 1174.38 3196.49 1174.2C3195.76 1174.01 3195.11 1173.62 3194.61 1173.07C3194.11 1172.52 3193.79 1171.83 3193.68 1171.09C3193.57 1170.35 3193.69 1169.6 3194.01 1168.93C3194.33 1168.26 3194.84 1167.69 3195.48 1167.31C3196.12 1166.93 3196.86 1166.75 3197.6 1166.79C3198.6 1166.84 3199.53 1167.29 3200.19 1168.03C3200.86 1168.76 3201.21 1169.73 3201.16 1170.73V1170.73Z" fill="#263238"/>
<path d="M3198.45 1155.59L3189.7 1161.02C3189.39 1159.96 3189.42 1158.84 3189.76 1157.79C3190.11 1156.75 3190.77 1155.84 3191.65 1155.18C3192.71 1154.59 3193.91 1154.32 3195.11 1154.39C3196.32 1154.46 3197.47 1154.88 3198.45 1155.59V1155.59Z" fill="#263238"/>
<path d="M3230.52 1156.85L3238.57 1163.06C3238.95 1162.06 3239.03 1160.98 3238.79 1159.94C3238.56 1158.91 3238.03 1157.96 3237.26 1157.23C3236.28 1156.55 3235.13 1156.16 3233.94 1156.09C3232.76 1156.03 3231.57 1156.29 3230.52 1156.85V1156.85Z" fill="#263238"/>
<path d="M3239.45 1139.67C3239 1142.33 3237.73 1144.79 3235.83 1146.7C3234.85 1147.65 3233.69 1148.4 3232.42 1148.9C3231.15 1149.4 3229.79 1149.65 3228.42 1149.61C3227.05 1149.59 3225.7 1149.21 3224.51 1148.52C3223.31 1147.84 3222.31 1146.86 3221.6 1145.68C3220.6 1147.06 3219.25 1148.16 3217.69 1148.85C3216.12 1149.54 3214.4 1149.8 3212.71 1149.61C3210.92 1149.47 3209.2 1148.88 3207.71 1147.91C3206.21 1146.93 3204.98 1145.59 3204.13 1144.02C3202.99 1145.68 3201.37 1146.96 3199.49 1147.7C3197.61 1148.44 3195.55 1148.6 3193.58 1148.16C3191.66 1147.65 3189.94 1146.58 3188.66 1145.07C3187.37 1143.57 3186.57 1141.7 3186.37 1139.73C3183.18 1140.53 3179.8 1140.05 3176.96 1138.39C3175.56 1137.54 3174.4 1136.34 3173.61 1134.91C3172.83 1133.47 3172.43 1131.86 3172.47 1130.22C3172.56 1128.6 3173.18 1127.06 3174.23 1125.82C3175.29 1124.58 3176.71 1123.72 3178.3 1123.37C3177.37 1121.43 3177.1 1119.23 3177.54 1117.12C3177.99 1115.01 3179.11 1113.11 3180.75 1111.71C3182.41 1110.34 3184.48 1109.57 3186.64 1109.52C3188.79 1109.47 3190.89 1110.15 3192.61 1111.44C3192.66 1110.02 3193.1 1108.64 3193.88 1107.46C3194.67 1106.28 3195.78 1105.35 3197.08 1104.77C3198.4 1104.24 3199.84 1104.1 3201.23 1104.37C3202.63 1104.64 3203.92 1105.3 3204.95 1106.28C3205.22 1103.8 3206.26 1101.48 3207.93 1099.62C3209.6 1097.77 3211.81 1096.49 3214.24 1095.97C3216.68 1095.44 3219.22 1095.69 3221.5 1096.69C3223.79 1097.69 3225.7 1099.38 3226.97 1101.53C3227.92 1099.87 3229.33 1098.51 3231.02 1097.61C3232.71 1096.71 3234.62 1096.3 3236.53 1096.43C3238.37 1096.57 3240.14 1097.25 3241.6 1098.37C3243.07 1099.49 3244.19 1101.01 3244.81 1102.75C3246.19 1100.67 3248.18 1099.07 3250.52 1098.18C3252.85 1097.29 3255.41 1097.16 3257.82 1097.8C3260.23 1098.45 3262.38 1099.84 3263.96 1101.77C3265.54 1103.71 3266.47 1106.09 3266.62 1108.59C3268.06 1107.37 3269.92 1106.75 3271.8 1106.85C3273.68 1106.96 3275.45 1107.79 3276.74 1109.17C3277.95 1110.62 3278.68 1112.42 3278.83 1114.3C3278.98 1116.18 3278.55 1118.07 3277.59 1119.7C3276.58 1121.29 3275.22 1122.63 3273.61 1123.6C3272.01 1124.58 3270.19 1125.17 3268.31 1125.32C3269.18 1127.47 3269.24 1129.85 3268.48 1132.04C3267.73 1134.22 3266.21 1136.06 3264.2 1137.21C3262.19 1138.36 3259.84 1138.74 3257.57 1138.29C3255.3 1137.83 3253.28 1136.57 3251.87 1134.74C3252.07 1136.32 3251.73 1137.92 3250.91 1139.29C3250.09 1140.65 3248.84 1141.7 3247.35 1142.27C3245.93 1142.8 3244.38 1142.84 3242.94 1142.36C3241.5 1141.89 3240.27 1140.94 3239.45 1139.67Z" fill="#263238"/>
<defs>
<linearGradient id="paint0_linear" x1="2339.28" y1="1360.73" x2="2435.72" y2="1360.73" gradientUnits="userSpaceOnUse">
<stop stop-color="#16997D"/>
<stop offset="1" stop-color="#00ED92"/>
</linearGradient>
<linearGradient id="paint1_linear" x1="2411.04" y1="1421.26" x2="2519.75" y2="1421.26" gradientUnits="userSpaceOnUse">
<stop stop-color="#16997D"/>
<stop offset="1" stop-color="#00ED92"/>
</linearGradient>
<linearGradient id="paint2_linear" x1="2308.66" y1="1433.88" x2="2418.43" y2="1433.88" gradientUnits="userSpaceOnUse">
<stop stop-color="#16997D"/>
<stop offset="1" stop-color="#00ED92"/>
</linearGradient>
<linearGradient id="paint3_linear" x1="3520.62" y1="1309.54" x2="3617.34" y2="1309.54" gradientUnits="userSpaceOnUse">
<stop stop-color="#16997D"/>
<stop offset="1" stop-color="#00ED92"/>
</linearGradient>
<linearGradient id="paint4_linear" x1="3530.96" y1="1352.28" x2="3637.17" y2="1352.28" gradientUnits="userSpaceOnUse">
<stop stop-color="#16997D"/>
<stop offset="1" stop-color="#00ED92"/>
</linearGradient>
<linearGradient id="paint5_linear" x1="2420.14" y1="1388.45" x2="2446.67" y2="1388.45" gradientUnits="userSpaceOnUse">
<stop stop-color="#4CE4FF"/>
<stop offset="1" stop-color="#4CE4FF"/>
</linearGradient>
<linearGradient id="paint6_linear" x1="2420.05" y1="867.861" x2="3193.77" y2="867.861" gradientUnits="userSpaceOnUse">
<stop stop-color="#00C4E8"/>
<stop offset="1" stop-color="#00B1D1"/>
<stop offset="1" stop-color="#0093AD"/>
</linearGradient>
<linearGradient id="paint7_linear" x1="2441.86" y1="874.548" x2="3197.56" y2="874.548" gradientUnits="userSpaceOnUse">
<stop stop-color="#00D8FF"/>
<stop offset="1" stop-color="#00D8FF"/>
</linearGradient>
<linearGradient id="paint8_linear" x1="2441.89" y1="1178.25" x2="3199.02" y2="1178.25" gradientUnits="userSpaceOnUse">
<stop stop-color="#8F09FF"/>
<stop offset="1" stop-color="#00D8FF"/>
</linearGradient>
<linearGradient id="paint9_linear" x1="2485.84" y1="1475.67" x2="2661.24" y2="1475.67" gradientUnits="userSpaceOnUse">
<stop stop-color="#00D8FF"/>
<stop offset="1" stop-color="#05355A"/>
</linearGradient>
<linearGradient id="paint10_linear" x1="2893.76" y1="1728.24" x2="2980.97" y2="1728.24" gradientUnits="userSpaceOnUse">
<stop stop-color="#2F83C1"/>
<stop offset="1" stop-color="#00D8FF"/>
</linearGradient>
<linearGradient id="paint11_linear" x1="2945.25" y1="1723.85" x2="2980.76" y2="1723.85" gradientUnits="userSpaceOnUse">
<stop stop-color="#2F83C1"/>
<stop offset="1" stop-color="#00D8FF"/>
</linearGradient>
<linearGradient id="paint12_linear" x1="2774.32" y1="1671.52" x2="2837.11" y2="1671.52" gradientUnits="userSpaceOnUse">
<stop stop-color="#2F83C1"/>
<stop offset="1" stop-color="#00D8FF"/>
</linearGradient>
<linearGradient id="paint13_linear" x1="2774.38" y1="1663.16" x2="2875.02" y2="1663.16" gradientUnits="userSpaceOnUse">
<stop stop-color="#2F83C1"/>
<stop offset="1" stop-color="#00D8FF"/>
</linearGradient>
<linearGradient id="paint14_linear" x1="2773.76" y1="1659.31" x2="2929.32" y2="1659.31" gradientUnits="userSpaceOnUse">
<stop stop-color="#2F83C1"/>
<stop offset="1" stop-color="#00D8FF"/>
</linearGradient>
<linearGradient id="paint15_linear" x1="2774.55" y1="1605.73" x2="2900.29" y2="1605.73" gradientUnits="userSpaceOnUse">
<stop stop-color="#2F83C1"/>
<stop offset="1" stop-color="#00D8FF"/>
</linearGradient>
<linearGradient id="paint16_linear" x1="2867.98" y1="1611.35" x2="2892.58" y2="1611.35" gradientUnits="userSpaceOnUse">
<stop stop-color="#2F83C1"/>
<stop offset="1" stop-color="#00D8FF"/>
</linearGradient>
<linearGradient id="paint17_linear" x1="2850.04" y1="1707.4" x2="2885.52" y2="1707.4" gradientUnits="userSpaceOnUse">
<stop stop-color="#2F83C1"/>
<stop offset="1" stop-color="#00D8FF"/>
</linearGradient>
<linearGradient id="paint18_linear" x1="2911.19" y1="1649.3" x2="2981.11" y2="1649.3" gradientUnits="userSpaceOnUse">
<stop stop-color="#2F83C1"/>
<stop offset="1" stop-color="#00D8FF"/>
</linearGradient>
<linearGradient id="paint19_linear" x1="2857.01" y1="1614.44" x2="2981.46" y2="1614.44" gradientUnits="userSpaceOnUse">
<stop stop-color="#2F83C1"/>
<stop offset="1" stop-color="#00D8FF"/>
</linearGradient>
<linearGradient id="paint20_linear" x1="2847.89" y1="1558.28" x2="2929.27" y2="1558.28" gradientUnits="userSpaceOnUse">
<stop stop-color="#2F83C1"/>
<stop offset="1" stop-color="#00D8FF"/>
</linearGradient>
<linearGradient id="paint21_linear" x1="2774.61" y1="1571.5" x2="2848.13" y2="1571.5" gradientUnits="userSpaceOnUse">
<stop stop-color="#2F83C1"/>
<stop offset="1" stop-color="#00D8FF"/>
</linearGradient>
<linearGradient id="paint22_linear" x1="2774.67" y1="1549.21" x2="2837.46" y2="1549.21" gradientUnits="userSpaceOnUse">
<stop stop-color="#2F83C1"/>
<stop offset="1" stop-color="#00D8FF"/>
</linearGradient>
<linearGradient id="paint23_linear" x1="2774.11" y1="1508.38" x2="2830.08" y2="1508.38" gradientUnits="userSpaceOnUse">
<stop stop-color="#2F83C1"/>
<stop offset="1" stop-color="#00D8FF"/>
</linearGradient>
<linearGradient id="paint24_linear" x1="2774.72" y1="1540.85" x2="2875.37" y2="1540.85" gradientUnits="userSpaceOnUse">
<stop stop-color="#2F83C1"/>
<stop offset="1" stop-color="#00D8FF"/>
</linearGradient>
<linearGradient id="paint25_linear" x1="2774.17" y1="1496.85" x2="2856.87" y2="1496.85" gradientUnits="userSpaceOnUse">
<stop stop-color="#2F83C1"/>
<stop offset="1" stop-color="#00D8FF"/>
</linearGradient>
<linearGradient id="paint26_linear" x1="2894.11" y1="1605.92" x2="2981.32" y2="1605.92" gradientUnits="userSpaceOnUse">
<stop stop-color="#2F83C1"/>
<stop offset="1" stop-color="#00D8FF"/>
</linearGradient>
<linearGradient id="paint27_linear" x1="2945.6" y1="1601.52" x2="2981.1" y2="1601.52" gradientUnits="userSpaceOnUse">
<stop stop-color="#2F83C1"/>
<stop offset="1" stop-color="#00D8FF"/>
</linearGradient>
<linearGradient id="paint28_linear" x1="2663.45" y1="1384.72" x2="2733.78" y2="1384.72" gradientUnits="userSpaceOnUse">
<stop stop-color="#2F83C1"/>
<stop offset="1" stop-color="#00D8FF"/>
</linearGradient>
<linearGradient id="paint29_linear" x1="2729.79" y1="1501.79" x2="2751.04" y2="1501.79" gradientUnits="userSpaceOnUse">
<stop stop-color="#2F83C1"/>
<stop offset="1" stop-color="#00D8FF"/>
</linearGradient>
<linearGradient id="paint30_linear" x1="2659.08" y1="1275.23" x2="2680.36" y2="1275.23" gradientUnits="userSpaceOnUse">
<stop stop-color="#2F83C1"/>
<stop offset="1" stop-color="#00D8FF"/>
</linearGradient>
<linearGradient id="paint31_linear" x1="3409.48" y1="867.097" x2="3496.7" y2="867.097" gradientUnits="userSpaceOnUse">
<stop stop-color="#2F83C1"/>
<stop offset="1" stop-color="#00D8FF"/>
</linearGradient>
<linearGradient id="paint32_linear" x1="3460.98" y1="862.722" x2="3496.45" y2="862.722" gradientUnits="userSpaceOnUse">
<stop stop-color="#2F83C1"/>
<stop offset="1" stop-color="#00D8FF"/>
</linearGradient>
<linearGradient id="paint33_linear" x1="3290.04" y1="810.381" x2="3352.84" y2="810.381" gradientUnits="userSpaceOnUse">
<stop stop-color="#2F83C1"/>
<stop offset="1" stop-color="#00D8FF"/>
</linearGradient>
<linearGradient id="paint34_linear" x1="3290.1" y1="802.041" x2="3390.74" y2="802.041" gradientUnits="userSpaceOnUse">
<stop stop-color="#2F83C1"/>
<stop offset="1" stop-color="#00D8FF"/>
</linearGradient>
<linearGradient id="paint35_linear" x1="3289.49" y1="798.177" x2="3445.01" y2="798.177" gradientUnits="userSpaceOnUse">
<stop stop-color="#2F83C1"/>
<stop offset="1" stop-color="#00D8FF"/>
</linearGradient>
<linearGradient id="paint36_linear" x1="3365.77" y1="846.248" x2="3401.24" y2="846.248" gradientUnits="userSpaceOnUse">
<stop stop-color="#2F83C1"/>
<stop offset="1" stop-color="#00D8FF"/>
</linearGradient>
<linearGradient id="paint37_linear" x1="3460.98" y1="931.672" x2="3496.45" y2="931.672" gradientUnits="userSpaceOnUse">
<stop stop-color="#2F83C1"/>
<stop offset="1" stop-color="#00D8FF"/>
</linearGradient>
<linearGradient id="paint38_linear" x1="3290.1" y1="870.992" x2="3390.74" y2="870.992" gradientUnits="userSpaceOnUse">
<stop stop-color="#2F83C1"/>
<stop offset="1" stop-color="#00D8FF"/>
</linearGradient>
<linearGradient id="paint39_linear" x1="3289.49" y1="867.127" x2="3445.01" y2="867.127" gradientUnits="userSpaceOnUse">
<stop stop-color="#2F83C1"/>
<stop offset="1" stop-color="#00D8FF"/>
</linearGradient>
<linearGradient id="paint40_linear" x1="3117.33" y1="947.418" x2="3353.88" y2="947.418" gradientUnits="userSpaceOnUse">
<stop stop-color="#2F83C1"/>
<stop offset="1" stop-color="#00D8FF"/>
</linearGradient>
<linearGradient id="paint41_linear" x1="3081.42" y1="1528.26" x2="3329.68" y2="1528.26" gradientUnits="userSpaceOnUse">
<stop stop-color="#E860FE"/>
<stop offset="1" stop-color="#8F09FF"/>
</linearGradient>
<linearGradient id="paint42_linear" x1="3327" y1="1427.5" x2="3192" y2="1241.5" gradientUnits="userSpaceOnUse">
<stop stop-color="#610000"/>
<stop offset="1" stop-color="#FF2828"/>
</linearGradient>
</defs>
</svg>
